<?xml version="1.0" encoding="UTF-8" standalone="no"?>
<!DOCTYPE svg PUBLIC "-//W3C//DTD SVG 1.1//EN" "http://www.w3.org/Graphics/SVG/1.1/DTD/svg11.dtd">
<svg xmlns="http://www.w3.org/2000/svg" version="1.1" viewBox="0.00 0.00 1773.00 1773.00">
<path fill="#ececec" d="
  M 1317.43 851.46
  L 1318.71 851.89
  L 1319.02 852.04
  L 1319.28 852.26
  L 1319.48 852.54
  L 1319.61 852.86
  L 1319.66 853.20
  L 1319.62 853.54
  L 1319.50 853.86
  L 1319.30 854.14
  L 1319.30 854.14
  L 1318.84 854.47
  L 1307.27 859.54
  L 1295.37 864.53
  L 1283.14 869.46
  L 1270.57 874.32
  L 1269.15 874.90
  L 1267.75 875.54
  L 1266.38 876.26
  L 1265.04 877.04
  L 1264.70 877.29
  L 1264.41 877.60
  L 1264.18 877.95
  L 1264.02 878.33
  L 1263.92 878.74
  L 1263.90 879.16
  L 1263.96 879.58
  L 1264.08 879.98
  L 1264.80 881.66
  L 1265.57 883.28
  L 1266.38 884.81
  L 1267.22 886.28
  L 1275.42 900.11
  L 1281.84 910.95
  L 1287.02 919.47
  L 1289.88 924.04
  L 1294.05 930.74
  L 1298.05 937.36
  L 1301.89 943.88
  L 1305.55 950.31
  L 1307.99 954.51
  L 1310.39 958.32
  L 1311.91 960.74
  L 1313.79 963.98
  L 1315.45 966.84
  L 1316.78 969.02
  L 1325.41 982.76
  L 1334.34 997.24
  L 1343.56 1012.45
  L 1353.08 1028.40
  L 1355.57 1032.58
  L 1363.96 1046.46
  L 1374.63 1063.79
  L 1380.70 1073.60
  L 1383.29 1078.06
  L 1385.62 1082.08
  L 1387.46 1084.91
  L 1388.55 1086.59
  L 1390.24 1089.40
  L 1401.65 1108.63
  L 1407.41 1118.17
  L 1415.43 1131.12
  L 1424.21 1145.31
  L 1430.49 1155.78
  L 1434.72 1162.87
  L 1438.81 1169.49
  L 1442.18 1174.94
  L 1447.66 1184.03
  L 1456.13 1198.03
  L 1462.18 1207.73
  L 1470.87 1221.39
  L 1472.60 1224.32
  L 1474.02 1226.89
  L 1475.21 1229.22
  L 1476.15 1231.27
  L 1476.86 1233.10
  L 1477.34 1234.68
  L 1477.56 1235.98
  L 1477.58 1236.53
  L 1477.54 1237.03
  L 1477.53 1237.10
  L 1477.36 1237.44
  L 1477.08 1237.69
  L 1476.72 1237.80
  L 1476.34 1237.76
  L 1446.53 1227.82
  L 1434.96 1223.89
  L 1425.61 1220.65
  L 1418.22 1218.09
  L 1411.09 1215.69
  L 1404.22 1213.46
  L 1397.61 1211.38
  L 1392.26 1209.69
  L 1386.46 1207.78
  L 1371.40 1202.57
  L 1359.33 1198.38
  L 1350.54 1195.46
  L 1343.69 1193.22
  L 1336.03 1190.62
  L 1315.66 1183.52
  L 1297.34 1177.12
  L 1290.89 1174.94
  L 1285.37 1173.15
  L 1277.52 1170.62
  L 1268.88 1167.78
  L 1249.21 1161.11
  L 1231.42 1154.98
  L 1168.85 1133.49
  L 1156.57 1129.34
  L 1139.19 1123.57
  L 1122.18 1117.91
  L 1109.74 1113.72
  L 1098.63 1109.90
  L 1088.63 1106.37
  L 1077.85 1102.54
  L 1068.73 1099.38
  L 1061.27 1096.89
  L 1055.47 1095.06
  L 1048.18 1092.83
  L 1041.94 1090.85
  L 1036.75 1089.10
  L 1032.62 1087.60
  L 1023.28 1084.15
  L 1014.37 1081.09
  L 1010.07 1079.71
  L 1005.87 1078.43
  L 1001.79 1077.25
  L 997.80 1076.17
  L 992.65 1074.68
  L 985.26 1072.33
  L 975.63 1069.12
  L 963.76 1065.04
  L 957.86 1063.02
  L 953.67 1061.66
  L 950.08 1060.48
  L 945.24 1058.76
  L 940.27 1056.99
  L 910.92 1047.00
  L 899.57 1043.06
  L 897.46 1042.29
  L 895.38 1041.59
  L 893.31 1040.98
  L 891.20 1040.42
  L 887.96 1039.70
  L 884.67 1039.13
  L 881.25 1038.70
  L 877.68 1038.41
  L 873.97 1038.25
  L 869.89 1038.20
  L 865.29 1038.26
  L 859.50 1038.44
  L 858.45 1038.43
  L 857.45 1038.33
  L 856.49 1038.14
  L 855.58 1037.85
  L 855.25 1037.76
  L 854.91 1037.73
  L 854.57 1037.77
  L 854.25 1037.87
  L 852.07 1038.77
  L 842.20 1042.78
  L 838.31 1044.26
  L 834.59 1045.60
  L 761.00 1071.27
  L 757.82 1072.34
  L 753.99 1073.55
  L 742.93 1076.84
  L 732.37 1079.97
  L 725.17 1082.25
  L 713.46 1086.18
  L 705.57 1088.94
  L 697.62 1091.73
  L 689.89 1094.26
  L 685.22 1095.77
  L 680.13 1097.50
  L 666.85 1102.23
  L 657.54 1105.57
  L 650.69 1107.95
  L 626.24 1116.17
  L 601.87 1124.23
  L 585.16 1129.79
  L 578.57 1132.06
  L 573.14 1133.98
  L 564.35 1137.06
  L 553.12 1140.79
  L 542.71 1144.25
  L 534.87 1147.00
  L 526.02 1150.17
  L 517.05 1153.32
  L 507.96 1156.44
  L 498.76 1159.53
  L 489.43 1162.59
  L 479.99 1165.62
  L 470.44 1168.63
  L 460.76 1171.61
  L 457.37 1172.69
  L 453.74 1173.92
  L 444.50 1177.31
  L 437.47 1179.91
  L 432.22 1181.73
  L 394.25 1194.39
  L 371.27 1202.19
  L 361.36 1205.54
  L 348.69 1209.65
  L 335.47 1213.95
  L 323.57 1217.94
  L 312.64 1221.74
  L 302.62 1225.36
  L 294.55 1228.32
  L 287.95 1230.68
  L 282.81 1232.45
  L 279.13 1233.62
  L 270.79 1236.03
  L 268.24 1236.71
  L 266.77 1237.04
  L 266.37 1237.02
  L 266.01 1236.85
  L 265.75 1236.55
  L 265.62 1236.17
  L 265.62 1236.13
  L 265.64 1235.36
  L 265.82 1234.45
  L 266.15 1233.39
  L 266.63 1232.20
  L 267.25 1230.89
  L 268.02 1229.45
  L 270.16 1225.87
  L 270.53 1225.27
  L 300.27 1176.88
  L 310.89 1159.41
  L 318.69 1146.44
  L 323.01 1139.36
  L 331.02 1126.45
  L 339.41 1112.75
  L 351.44 1092.73
  L 361.75 1075.55
  L 367.75 1065.82
  L 371.22 1060.27
  L 375.07 1054.02
  L 383.86 1039.36
  L 389.22 1030.48
  L 397.04 1017.83
  L 403.64 1007.17
  L 408.37 999.40
  L 412.49 992.49
  L 416.06 986.30
  L 418.62 981.85
  L 421.58 976.90
  L 429.68 963.70
  L 437.57 950.85
  L 476.29 886.29
  L 477.98 883.39
  L 479.70 880.21
  L 479.84 879.80
  L 479.82 879.36
  L 479.65 878.96
  L 479.36 878.64
  L 477.45 877.25
  L 475.62 876.04
  L 473.85 874.98
  L 472.16 874.10
  L 465.74 871.07
  L 460.01 868.52
  L 454.96 866.45
  L 450.60 864.86
  L 445.67 863.11
  L 440.26 861.00
  L 434.36 858.52
  L 427.97 855.69
  L 427.51 855.43
  L 427.10 855.09
  L 426.76 854.69
  L 426.49 854.23
  L 426.32 853.73
  L 426.23 853.21
  L 426.23 852.68
  L 426.33 852.16
  L 426.36 852.06
  L 426.38 852.01
  L 426.55 851.60
  L 426.80 851.24
  L 427.12 850.93
  L 427.49 850.69
  L 427.90 850.53
  L 428.34 850.46
  L 428.79 850.47
  L 429.22 850.57
  L 484.88 869.42
  L 484.96 869.43
  L 485.73 869.36
  L 486.42 869.12
  L 486.84 868.86
  L 487.22 868.52
  L 487.56 868.11
  L 487.86 867.62
  L 490.60 862.58
  L 493.07 858.16
  L 495.27 854.36
  L 497.19 851.19
  L 510.47 829.70
  L 524.09 807.63
  L 533.85 791.99
  L 539.32 783.10
  L 546.53 770.93
  L 552.70 760.49
  L 557.44 752.68
  L 607.51 671.40
  L 614.47 659.92
  L 623.99 643.93
  L 633.85 627.35
  L 641.03 615.54
  L 647.29 605.30
  L 652.82 596.00
  L 656.82 589.36
  L 662.47 580.36
  L 667.54 572.30
  L 671.11 566.42
  L 678.48 554.19
  L 687.35 539.96
  L 691.96 532.62
  L 695.74 526.38
  L 700.01 518.95
  L 702.89 513.97
  L 706.23 508.41
  L 710.10 502.17
  L 715.50 493.63
  L 721.16 484.69
  L 725.03 478.41
  L 748.42 439.85
  L 772.81 399.93
  L 775.52 395.24
  L 778.44 390.19
  L 795.39 362.36
  L 802.94 349.79
  L 809.89 338.13
  L 813.96 331.51
  L 817.26 326.17
  L 819.59 322.22
  L 822.13 317.84
  L 825.00 313.04
  L 832.57 300.74
  L 839.08 290.17
  L 843.94 282.15
  L 849.96 272.37
  L 865.50 247.51
  L 866.67 245.78
  L 867.89 244.22
  L 869.16 242.85
  L 870.47 241.66
  L 871.02 241.35
  L 871.64 241.27
  L 872.26 241.41
  L 872.78 241.76
  L 874.26 243.32
  L 875.72 245.08
  L 877.15 247.03
  L 878.57 249.17
  L 889.66 266.68
  L 897.31 278.72
  L 902.84 287.54
  L 907.75 295.54
  L 912.16 302.89
  L 916.23 309.72
  L 920.13 316.14
  L 923.88 322.16
  L 927.46 327.79
  L 928.77 329.92
  L 930.47 332.87
  L 932.48 336.33
  L 934.09 338.88
  L 936.69 342.96
  L 937.74 344.75
  L 938.63 346.39
  L 940.29 349.35
  L 942.71 353.15
  L 945.03 356.81
  L 946.66 359.66
  L 949.18 364.16
  L 950.35 366.10
  L 951.47 367.82
  L 953.01 370.26
  L 955.00 373.73
  L 956.66 376.62
  L 957.92 378.70
  L 969.61 397.40
  L 973.92 404.77
  L 978.24 412.03
  L 982.57 419.18
  L 986.92 426.22
  L 995.15 439.59
  L 1002.31 451.50
  L 1007.05 459.34
  L 1013.62 469.93
  L 1022.98 485.04
  L 1051.04 531.23
  L 1073.28 568.15
  L 1075.93 572.56
  L 1089.59 595.00
  L 1102.33 615.80
  L 1114.13 634.97
  L 1125.01 652.49
  L 1135.64 669.95
  L 1155.31 702.68
  L 1161.96 713.68
  L 1170.47 727.59
  L 1177.93 739.77
  L 1183.42 748.85
  L 1191.10 761.58
  L 1199.62 775.55
  L 1222.29 812.32
  L 1245.43 849.83
  L 1248.95 855.52
  L 1252.07 860.44
  L 1254.77 864.57
  L 1257.07 867.92
  L 1257.51 868.47
  L 1257.97 868.87
  L 1258.44 869.12
  L 1258.91 869.23
  L 1258.91 869.23
  L 1258.91 869.23
  L 1259.42 869.20
  L 1259.94 869.00
  L 1261.63 868.16
  L 1268.93 865.97
  L 1274.06 864.46
  L 1277.59 863.32
  L 1298.07 856.38
  L 1313.07 851.43
  L 1314.15 851.17
  L 1315.25 851.09
  L 1316.36 851.19
  L 1317.43 851.46
  Z
  M 867.53 306.49
  L 867.11 306.95
  L 866.41 307.90
  L 858.04 322.53
  L 855.93 326.19
  L 853.77 329.80
  L 851.55 333.38
  L 849.28 336.92
  L 838.15 354.08
  L 828.60 368.97
  L 820.63 381.59
  L 814.23 391.95
  L 802.76 410.74
  L 791.20 429.51
  L 779.55 448.28
  L 767.80 467.04
  L 760.54 478.38
  L 754.45 487.90
  L 752.42 491.20
  L 750.76 494.00
  L 747.30 499.90
  L 743.76 505.75
  L 740.14 511.56
  L 736.44 517.33
  L 732.32 523.73
  L 727.79 530.93
  L 715.76 550.48
  L 707.89 563.34
  L 702.04 572.77
  L 677.69 611.83
  L 653.54 650.81
  L 645.93 663.04
  L 637.87 675.83
  L 629.35 689.19
  L 620.37 703.12
  L 618.47 706.18
  L 615.85 710.67
  L 613.44 714.82
  L 611.65 717.75
  L 583.31 762.76
  L 560.03 800.04
  L 544.22 825.36
  L 529.81 848.12
  L 527.84 851.29
  L 525.57 855.16
  L 522.63 860.43
  L 520.15 864.89
  L 518.52 867.63
  L 516.74 870.23
  L 514.82 872.70
  L 512.76 875.03
  L 512.00 875.82
  L 511.76 876.20
  L 511.69 876.65
  L 511.82 877.09
  L 512.12 877.43
  L 512.25 877.51
  L 514.98 878.85
  L 518.02 880.09
  L 521.41 881.26
  L 526.12 882.69
  L 531.74 884.41
  L 543.40 888.28
  L 553.61 891.72
  L 562.37 894.75
  L 569.68 897.36
  L 580.45 901.25
  L 590.34 904.76
  L 599.35 907.90
  L 607.49 910.65
  L 818.54 980.97
  L 821.66 982.06
  L 825.37 983.44
  L 834.52 987.05
  L 837.61 988.20
  L 841.86 989.57
  L 846.79 991.19
  L 848.63 991.88
  L 850.32 992.59
  L 851.02 992.80
  L 851.76 992.81
  L 852.47 992.63
  L 853.10 992.27
  L 855.28 990.69
  L 857.56 989.23
  L 859.94 987.88
  L 862.42 986.65
  L 863.40 986.23
  L 864.40 985.89
  L 864.40 985.89
  L 864.40 985.89
  L 865.89 985.50
  L 867.44 985.27
  L 869.03 985.17
  L 870.66 985.23
  L 872.34 985.43
  L 874.06 985.78
  L 875.83 986.27
  L 877.65 986.91
  L 880.06 987.90
  L 882.87 989.14
  L 886.06 990.64
  L 889.65 992.40
  L 890.52 992.72
  L 891.45 992.84
  L 892.37 992.74
  L 893.25 992.45
  L 895.99 991.29
  L 915.98 983.86
  L 920.02 982.39
  L 924.74 980.76
  L 936.16 977.02
  L 958.56 969.57
  L 1098.63 922.88
  L 1113.11 918.16
  L 1119.50 916.17
  L 1125.32 914.41
  L 1130.58 912.82
  L 1135.40 911.29
  L 1139.79 909.81
  L 1143.75 908.38
  L 1144.19 908.22
  L 1153.80 904.70
  L 1164.21 901.04
  L 1176.19 896.96
  L 1194.49 890.84
  L 1216.31 883.55
  L 1217.91 883.09
  L 1220.82 882.37
  L 1230.58 880.09
  L 1231.00 879.89
  L 1231.31 879.54
  L 1231.65 878.68
  L 1231.73 878.26
  L 1231.73 877.85
  L 1231.57 877.08
  L 1231.17 876.33
  L 1228.10 871.85
  L 1225.12 867.41
  L 1222.23 862.98
  L 1219.43 858.59
  L 1206.13 837.37
  L 1192.93 816.20
  L 1179.84 795.09
  L 1166.85 774.02
  L 1163.03 767.90
  L 1158.63 761.03
  L 1154.58 754.70
  L 1149.21 746.12
  L 1142.59 735.58
  L 1137.98 728.53
  L 1135.39 724.61
  L 1132.60 720.22
  L 1129.55 715.25
  L 1125.41 708.36
  L 1120.45 700.14
  L 1116.75 694.18
  L 1110.05 683.51
  L 1102.40 671.16
  L 1093.81 657.15
  L 1084.27 641.47
  L 1080.56 635.48
  L 1074.84 626.43
  L 1057.38 599.16
  L 1053.99 593.82
  L 1050.42 588.05
  L 1046.68 581.85
  L 1042.75 575.23
  L 1039.40 569.58
  L 1035.82 563.69
  L 1028.01 551.14
  L 1020.79 539.59
  L 1009.58 521.40
  L 997.27 501.42
  L 987.95 486.44
  L 983.68 479.56
  L 978.38 470.87
  L 971.89 460.28
  L 966.72 452.05
  L 963.03 446.13
  L 957.44 436.86
  L 952.48 428.62
  L 948.81 422.64
  L 945.55 417.45
  L 942.64 412.98
  L 935.98 402.87
  L 931.55 395.90
  L 919.71 376.74
  L 907.72 357.62
  L 895.79 338.90
  L 884.13 320.87
  L 882.03 317.60
  L 880.44 315.01
  L 879.10 312.66
  L 877.92 310.38
  L 876.69 308.09
  L 875.30 305.96
  L 875.16 305.84
  L 874.97 305.80
  L 874.79 305.85
  L 874.66 305.98
  L 874.66 305.98
  L 874.61 306.13
  L 874.43 307.72
  L 874.30 309.39
  L 874.22 313.00
  L 874.33 329.20
  L 874.35 344.51
  L 874.27 358.95
  L 874.11 372.50
  L 874.15 373.77
  L 874.31 375.92
  L 874.97 382.85
  L 875.34 387.05
  L 875.70 392.59
  L 876.10 398.65
  L 876.54 403.07
  L 876.78 405.40
  L 876.95 407.83
  L 877.06 410.35
  L 877.09 412.96
  L 877.02 456.13
  L 876.99 459.87
  L 877.04 463.46
  L 877.17 467.18
  L 877.39 471.13
  L 878.22 481.85
  L 878.94 490.58
  L 879.38 497.07
  L 879.70 503.55
  L 879.88 510.01
  L 879.93 516.45
  L 879.88 532.88
  L 879.77 545.01
  L 879.77 549.73
  L 879.89 554.54
  L 880.14 559.45
  L 880.50 564.46
  L 881.20 573.13
  L 881.74 580.71
  L 882.11 587.19
  L 882.31 592.58
  L 882.45 601.18
  L 882.48 610.87
  L 882.39 621.64
  L 882.19 633.50
  L 882.26 636.76
  L 882.56 642.39
  L 883.08 650.38
  L 883.83 660.75
  L 883.87 661.24
  L 884.04 662.45
  L 884.34 663.98
  L 884.67 665.66
  L 884.78 666.53
  L 884.82 667.40
  L 884.80 668.27
  L 884.72 669.14
  L 884.14 673.82
  L 883.73 677.65
  L 883.50 680.63
  L 883.45 682.76
  L 883.62 687.54
  L 883.96 693.14
  L 884.47 699.54
  L 885.15 706.76
  L 885.14 707.78
  L 885.05 708.95
  L 885.03 710.21
  L 885.24 713.49
  L 885.40 715.44
  L 885.45 716.83
  L 885.49 738.44
  L 885.43 770.32
  L 885.50 776.15
  L 885.74 782.45
  L 886.16 789.38
  L 886.87 798.82
  L 887.35 805.01
  L 887.85 812.51
  L 888.21 819.35
  L 888.41 825.52
  L 888.46 831.03
  L 888.28 865.30
  L 888.29 869.21
  L 888.39 872.78
  L 888.68 877.84
  L 889.29 885.08
  L 889.73 890.05
  L 889.93 893.13
  L 890.09 897.23
  L 890.34 902.82
  L 890.51 904.95
  L 890.74 906.93
  L 891.01 909.50
  L 891.19 912.47
  L 891.29 915.84
  L 891.31 919.60
  L 891.21 942.21
  L 891.18 966.98
  L 891.06 969.19
  L 890.66 972.29
  L 890.63 972.41
  L 890.46 972.70
  L 890.19 972.88
  L 889.87 972.94
  L 889.55 972.85
  L 887.61 971.88
  L 885.84 971.06
  L 884.21 970.37
  L 882.65 969.80
  L 881.13 969.32
  L 879.65 968.95
  L 878.15 968.66
  L 876.69 968.47
  L 875.29 968.37
  L 873.86 968.35
  L 872.42 968.42
  L 870.93 968.56
  L 867.92 969.05
  L 864.72 969.79
  L 861.35 970.78
  L 857.80 972.03
  L 856.65 972.43
  L 855.55 972.75
  L 854.49 972.98
  L 853.48 973.13
  L 852.96 973.08
  L 852.51 972.81
  L 852.21 972.39
  L 852.12 971.88
  L 852.13 971.72
  L 852.71 967.59
  L 853.21 963.44
  L 853.63 959.27
  L 853.98 955.07
  L 854.23 950.84
  L 854.41 946.58
  L 854.51 942.30
  L 854.53 938.00
  L 854.37 885.67
  L 854.37 885.56
  L 854.48 876.58
  L 854.83 867.17
  L 855.41 856.93
  L 856.43 842.48
  L 857.38 829.07
  L 857.44 826.91
  L 857.40 823.90
  L 857.24 820.04
  L 856.98 815.33
  L 856.91 812.42
  L 857.04 808.65
  L 857.15 804.81
  L 857.12 803.36
  L 857.03 802.02
  L 856.88 799.95
  L 856.81 797.58
  L 856.83 794.93
  L 856.92 791.99
  L 857.26 782.13
  L 857.45 771.47
  L 857.48 760.01
  L 857.37 747.75
  L 857.35 742.39
  L 857.46 736.86
  L 857.69 731.15
  L 858.05 725.27
  L 859.69 701.00
  L 860.04 694.42
  L 860.16 689.01
  L 860.16 645.49
  L 860.18 641.95
  L 860.28 638.52
  L 860.43 635.22
  L 860.66 632.04
  L 861.36 622.02
  L 861.94 613.49
  L 862.52 606.93
  L 862.85 603.32
  L 863.06 600.17
  L 863.14 597.48
  L 863.09 595.25
  L 862.72 587.03
  L 862.39 580.09
  L 862.19 577.81
  L 861.94 575.87
  L 861.90 574.97
  L 862.44 567.16
  L 862.82 560.43
  L 863.03 554.80
  L 863.08 550.25
  L 862.97 529.98
  L 862.98 512.00
  L 863.03 509.17
  L 863.15 505.93
  L 863.66 497.50
  L 863.98 492.34
  L 864.63 480.34
  L 865.19 472.59
  L 865.58 467.47
  L 865.81 462.59
  L 865.93 457.42
  L 865.94 451.68
  L 865.84 443.37
  L 865.72 432.50
  L 865.76 424.71
  L 865.97 417.89
  L 866.15 414.84
  L 866.37 412.03
  L 866.64 409.47
  L 866.95 407.15
  L 867.24 404.96
  L 867.49 402.48
  L 867.87 396.59
  L 867.87 396.58
  L 868.06 393.12
  L 868.37 388.92
  L 868.70 384.16
  L 868.84 380.48
  L 868.84 377.25
  L 868.74 367.81
  L 868.70 356.95
  L 868.74 344.67
  L 868.85 330.97
  L 868.86 325.88
  L 868.78 319.32
  L 868.70 312.53
  L 868.70 307.08
  L 868.62 306.74
  L 868.40 306.48
  L 868.08 306.35
  L 867.74 306.38
  L 867.74 306.38
  L 867.53 306.49
  Z
  M 317.86 1179.29
  L 318.90 1179.09
  L 321.65 1178.38
  L 324.73 1177.37
  L 328.16 1176.03
  L 332.91 1174.02
  L 338.46 1171.68
  L 340.54 1170.87
  L 342.45 1170.20
  L 417.78 1145.06
  L 493.97 1119.70
  L 515.34 1112.48
  L 534.76 1105.92
  L 548.78 1101.31
  L 572.60 1093.52
  L 583.19 1089.97
  L 592.89 1086.64
  L 623.55 1076.08
  L 632.94 1072.91
  L 638.38 1071.14
  L 647.00 1068.44
  L 655.28 1065.73
  L 663.22 1063.03
  L 670.82 1060.33
  L 677.00 1058.15
  L 683.59 1055.94
  L 690.70 1053.67
  L 700.10 1050.78
  L 701.99 1050.20
  L 711.72 1047.13
  L 721.21 1043.94
  L 730.44 1040.63
  L 739.42 1037.20
  L 743.61 1035.62
  L 748.87 1033.76
  L 765.04 1028.38
  L 776.62 1024.56
  L 785.32 1021.62
  L 793.18 1018.89
  L 800.29 1016.31
  L 801.21 1015.88
  L 802.16 1015.26
  L 803.13 1014.45
  L 804.12 1013.45
  L 804.23 1013.27
  L 804.26 1013.07
  L 804.21 1012.87
  L 804.09 1012.71
  L 803.02 1011.79
  L 801.83 1010.91
  L 800.49 1010.08
  L 799.03 1009.28
  L 795.12 1007.37
  L 791.06 1005.50
  L 786.85 1003.68
  L 782.49 1001.91
  L 777.79 1000.03
  L 767.33 995.70
  L 752.91 989.53
  L 739.06 983.58
  L 728.31 979.12
  L 713.04 973.06
  L 698.25 967.19
  L 687.69 962.84
  L 642.84 943.89
  L 600.75 926.22
  L 569.61 913.27
  L 539.97 901.11
  L 531.72 897.62
  L 528.91 896.45
  L 525.11 894.98
  L 520.50 893.18
  L 516.94 891.67
  L 513.94 890.50
  L 511.37 889.53
  L 509.56 888.73
  L 508.09 887.94
  L 506.91 887.11
  L 506.87 887.08
  L 506.48 886.90
  L 506.05 886.88
  L 505.64 887.04
  L 505.33 887.34
  L 503.43 890.33
  L 500.52 895.35
  L 497.59 900.39
  L 495.49 903.80
  L 481.83 925.00
  L 471.37 941.50
  L 469.07 945.06
  L 465.64 950.19
  L 460.38 958.12
  L 444.04 983.57
  L 422.23 1017.33
  L 417.59 1024.69
  L 411.26 1035.04
  L 408.13 1040.12
  L 404.64 1045.63
  L 395.24 1060.01
  L 388.16 1070.78
  L 383.00 1078.83
  L 376.73 1088.68
  L 370.55 1098.24
  L 364.46 1107.52
  L 358.46 1116.52
  L 357.65 1117.72
  L 353.98 1123.29
  L 350.24 1129.10
  L 346.31 1135.35
  L 341.04 1143.88
  L 337.33 1149.88
  L 335.08 1153.45
  L 332.46 1157.43
  L 328.82 1162.75
  L 325.33 1167.84
  L 323.72 1170.05
  L 321.85 1172.34
  L 319.71 1174.69
  L 317.32 1177.11
  L 317.13 1177.34
  L 317.00 1177.61
  L 316.93 1177.89
  L 316.93 1178.19
  L 317.00 1178.48
  L 317.13 1178.75
  L 317.32 1178.97
  L 317.55 1179.16
  L 317.86 1179.29
  Z
  M 1420.98 1175.80
  L 1420.67 1174.31
  L 1420.23 1172.97
  L 1419.67 1171.78
  L 1418.98 1170.74
  L 1417.31 1168.48
  L 1415.58 1165.95
  L 1413.76 1163.10
  L 1411.32 1159.09
  L 1407.83 1153.40
  L 1402.70 1145.30
  L 1391.23 1127.19
  L 1383.11 1114.49
  L 1375.69 1103.04
  L 1368.64 1092.34
  L 1365.04 1086.86
  L 1361.18 1080.86
  L 1351.29 1065.13
  L 1341.87 1050.14
  L 1334.81 1039.25
  L 1333.40 1037.12
  L 1328.62 1029.69
  L 1323.95 1022.18
  L 1320.11 1015.98
  L 1314.60 1007.26
  L 1308.01 996.81
  L 1303.32 989.19
  L 1300.31 984.48
  L 1295.00 976.58
  L 1289.56 968.51
  L 1286.09 963.15
  L 1279.40 952.50
  L 1271.14 939.47
  L 1262.97 926.58
  L 1258.03 918.72
  L 1253.50 911.58
  L 1249.00 904.65
  L 1244.52 897.92
  L 1240.07 891.40
  L 1239.34 890.46
  L 1238.60 889.76
  L 1237.86 889.30
  L 1237.10 889.06
  L 1236.30 889.04
  L 1235.50 889.21
  L 1230.96 890.79
  L 1225.64 892.81
  L 1219.53 895.26
  L 1211.37 898.64
  L 1203.45 901.91
  L 1163.73 917.77
  L 1126.82 932.64
  L 1120.27 935.33
  L 1113.58 938.17
  L 1097.53 945.19
  L 1094.56 946.51
  L 1089.82 948.56
  L 1084.17 950.91
  L 1070.19 956.49
  L 1057.21 961.71
  L 1042.22 967.97
  L 1033.90 971.45
  L 1024.22 975.41
  L 1013.16 979.85
  L 1000.73 984.76
  L 997.13 986.25
  L 991.62 988.64
  L 974.93 996.10
  L 968.32 998.98
  L 959.27 1002.73
  L 950.23 1006.47
  L 943.97 1009.23
  L 942.43 1010.03
  L 941.05 1010.94
  L 939.80 1011.96
  L 938.71 1013.10
  L 938.58 1013.33
  L 938.55 1013.58
  L 938.61 1013.83
  L 938.76 1014.04
  L 939.94 1014.97
  L 941.39 1015.81
  L 943.16 1016.59
  L 945.68 1017.51
  L 947.61 1018.21
  L 952.58 1020.03
  L 987.23 1031.49
  L 1018.10 1041.90
  L 1026.98 1044.88
  L 1040.01 1049.16
  L 1053.56 1053.62
  L 1063.40 1056.92
  L 1072.02 1059.88
  L 1079.56 1062.58
  L 1084.37 1064.30
  L 1089.87 1066.18
  L 1105.08 1071.16
  L 1116.68 1074.94
  L 1125.04 1077.74
  L 1132.34 1080.32
  L 1138.72 1082.72
  L 1143.09 1084.35
  L 1147.91 1086.00
  L 1153.28 1087.71
  L 1160.65 1089.94
  L 1171.32 1093.21
  L 1175.39 1094.55
  L 1179.09 1095.84
  L 1190.48 1099.88
  L 1203.84 1104.49
  L 1219.16 1109.67
  L 1239.33 1116.39
  L 1258.98 1122.96
  L 1282.22 1130.81
  L 1312.95 1140.98
  L 1336.32 1148.73
  L 1359.51 1156.52
  L 1382.50 1164.36
  L 1405.30 1172.25
  L 1406.85 1172.84
  L 1409.12 1173.80
  L 1413.01 1175.39
  L 1414.50 1175.90
  L 1415.87 1176.29
  L 1417.15 1176.55
  L 1418.35 1176.68
  L 1419.45 1176.68
  L 1420.45 1176.56
  L 1420.69 1176.47
  L 1420.87 1176.29
  L 1420.97 1176.06
  L 1420.98 1175.80
  Z"
/>
<path fill="#ececec" d="
  M 858.36 1053.31
  L 861.74 1054.98
  L 865.36 1056.61
  L 866.93 1057.22
  L 868.41 1057.64
  L 869.82 1057.89
  L 871.20 1057.97
  L 872.11 1057.94
  L 873.02 1057.83
  L 873.97 1057.64
  L 874.94 1057.38
  L 877.05 1056.61
  L 879.52 1055.46
  L 881.15 1054.69
  L 882.78 1054.01
  L 884.39 1053.45
  L 886.00 1052.98
  L 886.42 1052.97
  L 886.80 1053.15
  L 887.06 1053.49
  L 887.14 1053.90
  L 887.09 1054.16
  L 885.99 1057.53
  L 885.14 1060.47
  L 884.47 1063.24
  L 883.95 1065.96
  L 883.66 1067.97
  L 883.44 1069.99
  L 883.02 1075.13
  L 882.73 1079.88
  L 882.56 1084.26
  L 882.53 1088.25
  L 882.57 1092.15
  L 882.61 1100.55
  L 882.56 1103.71
  L 882.45 1106.57
  L 882.28 1109.36
  L 882.04 1112.02
  L 881.74 1114.57
  L 881.36 1117.05
  L 880.78 1121.03
  L 880.36 1125.41
  L 880.06 1130.29
  L 879.81 1137.01
  L 879.52 1144.65
  L 879.14 1150.32
  L 878.14 1162.77
  L 877.19 1176.34
  L 876.28 1191.02
  L 875.41 1206.82
  L 875.09 1211.45
  L 874.49 1217.70
  L 873.96 1223.26
  L 873.65 1227.31
  L 873.50 1230.99
  L 873.51 1234.35
  L 873.45 1234.71
  L 873.26 1235.01
  L 872.97 1235.22
  L 872.61 1235.30
  L 872.60 1235.30
  L 870.72 1235.30
  L 870.71 1235.30
  L 870.30 1235.21
  L 869.95 1234.97
  L 869.72 1234.62
  L 869.64 1234.20
  L 869.59 1229.86
  L 869.30 1225.13
  L 868.79 1220.01
  L 868.04 1214.49
  L 867.75 1212.08
  L 867.58 1209.52
  L 867.25 1204.52
  L 866.71 1195.96
  L 865.92 1181.07
  L 865.33 1170.11
  L 864.72 1159.88
  L 864.13 1151.03
  L 863.58 1143.84
  L 863.37 1140.98
  L 863.20 1137.94
  L 862.98 1130.31
  L 862.78 1123.22
  L 862.46 1117.79
  L 861.31 1102.02
  L 860.41 1086.95
  L 859.47 1067.67
  L 859.40 1066.28
  L 859.31 1064.95
  L 859.14 1063.51
  L 858.53 1059.75
  L 857.96 1056.33
  L 857.67 1053.77
  L 857.70 1053.55
  L 857.83 1053.38
  L 858.02 1053.27
  L 858.24 1053.27
  L 858.36 1053.31
  Z"
/>
<path fill="#ececec" d="
  M 294.71 1561.30
  L 294.73 1561.37
  L 294.74 1561.57
  L 294.66 1561.75
  L 294.51 1561.88
  L 294.32 1561.94
  L 288.11 1562.29
  L 280.86 1562.55
  L 272.58 1562.72
  L 263.25 1562.79
  L 262.78 1562.75
  L 262.31 1562.65
  L 261.81 1562.46
  L 261.31 1562.21
  L 260.26 1561.46
  L 259.17 1560.43
  L 258.04 1559.10
  L 256.88 1557.50
  L 255.67 1555.62
  L 254.22 1553.17
  L 253.90 1552.61
  L 246.14 1539.15
  L 242.36 1532.42
  L 241.91 1531.56
  L 240.89 1529.68
  L 240.16 1528.52
  L 239.41 1527.62
  L 238.59 1526.93
  L 237.59 1526.39
  L 236.42 1526.03
  L 234.99 1525.82
  L 233.25 1525.74
  L 202.02 1525.71
  L 176.04 1525.78
  L 171.61 1525.91
  L 166.50 1526.23
  L 160.69 1526.76
  L 153.06 1527.59
  L 147.00 1528.24
  L 144.25 1528.39
  L 141.55 1528.34
  L 138.90 1528.07
  L 136.29 1527.59
  L 136.29 1527.59
  L 133.73 1526.90
  L 131.22 1526.00
  L 131.00 1525.95
  L 130.78 1525.96
  L 130.58 1526.04
  L 130.40 1526.17
  L 129.60 1527.03
  L 128.88 1527.90
  L 128.24 1528.77
  L 127.68 1529.66
  L 119.70 1543.25
  L 109.99 1559.50
  L 109.47 1560.27
  L 108.89 1560.94
  L 108.25 1561.50
  L 107.56 1561.97
  L 107.56 1561.97
  L 107.56 1561.97
  L 107.56 1561.97
  L 107.56 1561.97
  L 106.79 1562.35
  L 105.96 1562.62
  L 105.08 1562.79
  L 104.13 1562.85
  L 90.04 1562.94
  L 80.23 1562.85
  L 80.12 1562.84
  L 79.76 1562.71
  L 79.49 1562.44
  L 79.34 1562.09
  L 79.36 1561.70
  L 79.74 1560.42
  L 80.25 1559.06
  L 80.88 1557.63
  L 81.64 1556.13
  L 84.40 1551.09
  L 87.88 1545.01
  L 92.06 1537.87
  L 96.96 1529.68
  L 102.17 1521.14
  L 108.05 1511.69
  L 114.73 1501.10
  L 124.07 1486.46
  L 136.67 1466.68
  L 145.76 1452.16
  L 153.75 1439.07
  L 160.79 1427.13
  L 162.68 1424.06
  L 165.29 1420.21
  L 167.79 1416.55
  L 168.06 1416.18
  L 168.78 1415.40
  L 169.66 1414.72
  L 170.67 1414.16
  L 171.84 1413.71
  L 173.17 1413.36
  L 174.66 1413.11
  L 176.33 1412.95
  L 178.36 1412.86
  L 183.39 1412.77
  L 188.26 1412.75
  L 192.98 1412.79
  L 197.55 1412.89
  L 199.12 1413.04
  L 200.52 1413.38
  L 201.17 1413.62
  L 201.77 1413.91
  L 202.34 1414.25
  L 202.86 1414.64
  L 202.86 1414.64
  L 202.86 1414.64
  L 203.69 1415.43
  L 204.39 1416.38
  L 208.79 1423.48
  L 213.07 1430.60
  L 218.04 1438.92
  L 223.99 1448.56
  L 232.66 1462.30
  L 238.62 1471.71
  L 241.86 1476.97
  L 244.91 1481.92
  L 247.39 1485.60
  L 249.18 1488.29
  L 252.29 1493.21
  L 262.49 1509.71
  L 268.06 1518.66
  L 273.73 1527.54
  L 279.50 1536.34
  L 285.37 1545.06
  L 286.72 1547.12
  L 288.30 1549.72
  L 289.95 1552.42
  L 291.28 1554.34
  L 291.97 1555.36
  L 292.62 1556.51
  L 293.25 1557.85
  L 294.10 1559.85
  L 294.71 1561.30
  Z
  M 145.89 1502.92
  L 147.70 1503.20
  L 149.61 1503.38
  L 151.63 1503.47
  L 153.75 1503.45
  L 161.85 1503.27
  L 171.99 1503.17
  L 184.16 1503.14
  L 198.37 1503.18
  L 205.22 1503.34
  L 211.00 1503.48
  L 215.15 1503.46
  L 218.82 1503.28
  L 222.06 1502.91
  L 222.50 1502.76
  L 222.88 1502.49
  L 223.15 1502.11
  L 223.29 1501.66
  L 223.30 1501.08
  L 223.17 1500.43
  L 222.90 1499.71
  L 222.49 1498.92
  L 217.72 1490.87
  L 211.94 1481.44
  L 205.14 1470.62
  L 197.34 1458.42
  L 192.26 1450.48
  L 188.13 1443.87
  L 187.83 1443.37
  L 187.83 1443.37
  L 187.35 1442.46
  L 186.91 1441.51
  L 186.54 1440.54
  L 186.21 1439.53
  L 186.10 1439.27
  L 185.93 1439.04
  L 185.71 1438.86
  L 185.45 1438.74
  L 185.17 1438.69
  L 184.89 1438.71
  L 184.61 1438.79
  L 184.37 1438.94
  L 184.08 1439.27
  L 177.83 1449.86
  L 170.79 1461.37
  L 162.98 1473.81
  L 154.39 1487.16
  L 149.33 1495.00
  L 145.24 1501.44
  L 145.16 1501.61
  L 145.09 1502.03
  L 145.21 1502.44
  L 145.50 1502.75
  L 145.89 1502.92
  Z"
/>
<path fill="#ececec" d="
  M 448.81 1561.86
  L 448.62 1561.73
  L 448.61 1561.51
  L 448.65 1561.45
  L 451.01 1558.78
  L 453.22 1556.39
  L 455.28 1554.29
  L 457.19 1552.46
  L 461.96 1548.19
  L 467.93 1543.06
  L 475.08 1537.04
  L 483.42 1530.16
  L 488.15 1526.17
  L 493.10 1521.76
  L 498.30 1516.93
  L 503.72 1511.68
  L 506.84 1508.66
  L 509.79 1505.91
  L 514.40 1501.84
  L 521.04 1496.25
  L 526.46 1491.70
  L 528.50 1489.88
  L 530.27 1488.06
  L 530.39 1487.86
  L 530.42 1487.64
  L 530.37 1487.42
  L 530.24 1487.23
  L 530.23 1487.22
  L 525.27 1482.73
  L 518.59 1476.94
  L 512.21 1471.40
  L 507.42 1467.09
  L 496.81 1457.48
  L 485.61 1447.60
  L 473.81 1437.47
  L 461.41 1427.07
  L 459.32 1425.30
  L 457.56 1423.71
  L 456.01 1422.21
  L 454.68 1420.80
  L 453.53 1419.44
  L 452.59 1418.15
  L 451.87 1416.95
  L 451.35 1415.82
  L 451.26 1415.47
  L 451.25 1415.11
  L 451.31 1414.76
  L 451.45 1414.43
  L 451.65 1414.13
  L 451.91 1413.89
  L 452.22 1413.70
  L 452.56 1413.59
  L 452.56 1413.59
  L 452.56 1413.59
  L 452.82 1413.56
  L 457.75 1413.32
  L 462.80 1413.13
  L 473.25 1412.93
  L 473.82 1412.93
  L 477.20 1412.92
  L 479.70 1413.00
  L 481.90 1413.18
  L 483.88 1413.47
  L 485.70 1413.88
  L 487.35 1414.43
  L 488.80 1415.11
  L 490.09 1415.92
  L 492.12 1417.43
  L 494.10 1418.99
  L 496.03 1420.60
  L 497.92 1422.25
  L 502.26 1426.14
  L 514.61 1437.16
  L 524.35 1445.63
  L 532.11 1452.20
  L 541.57 1460.17
  L 551.15 1468.35
  L 552.72 1469.61
  L 554.02 1470.46
  L 554.36 1470.59
  L 554.73 1470.62
  L 555.09 1470.55
  L 555.42 1470.39
  L 556.14 1469.84
  L 557.06 1469.04
  L 559.49 1466.74
  L 564.39 1462.07
  L 570.02 1457.04
  L 570.31 1456.79
  L 579.20 1448.98
  L 588.51 1440.81
  L 594.76 1435.43
  L 600.26 1430.64
  L 606.35 1425.16
  L 610.40 1421.51
  L 613.71 1418.63
  L 616.27 1416.49
  L 618.10 1415.12
  L 618.89 1414.64
  L 619.76 1414.21
  L 620.72 1413.85
  L 621.76 1413.56
  L 622.89 1413.32
  L 624.10 1413.15
  L 625.39 1413.04
  L 626.77 1412.99
  L 639.24 1412.88
  L 643.62 1412.90
  L 646.75 1412.97
  L 648.17 1413.08
  L 649.47 1413.27
  L 650.66 1413.56
  L 651.73 1413.94
  L 651.96 1414.09
  L 652.11 1414.32
  L 652.16 1414.58
  L 652.11 1414.85
  L 651.41 1416.38
  L 650.60 1417.79
  L 649.61 1419.19
  L 648.45 1420.55
  L 647.08 1421.90
  L 645.46 1423.30
  L 641.35 1426.70
  L 636.86 1430.56
  L 631.92 1434.93
  L 625.27 1440.91
  L 618.13 1447.34
  L 592.19 1470.40
  L 589.35 1472.91
  L 585.26 1476.34
  L 581.12 1479.80
  L 578.19 1482.39
  L 575.67 1484.79
  L 573.55 1487.04
  L 573.38 1487.34
  L 573.36 1487.69
  L 573.49 1488.01
  L 573.74 1488.25
  L 573.74 1488.25
  L 573.74 1488.25
  L 573.88 1488.31
  L 575.54 1489.00
  L 575.54 1489.00
  L 576.62 1489.59
  L 577.66 1490.28
  L 578.66 1491.06
  L 579.60 1491.94
  L 584.82 1497.05
  L 590.52 1502.39
  L 596.69 1507.96
  L 603.34 1513.75
  L 607.67 1517.51
  L 611.57 1521.01
  L 615.04 1524.24
  L 618.08 1527.19
  L 621.55 1530.53
  L 625.53 1534.10
  L 630.08 1537.99
  L 636.45 1543.25
  L 644.26 1549.72
  L 646.41 1551.50
  L 649.25 1553.74
  L 652.12 1556.02
  L 654.14 1557.71
  L 655.88 1559.29
  L 657.41 1560.85
  L 657.46 1560.91
  L 657.58 1561.17
  L 657.58 1561.45
  L 657.46 1561.71
  L 657.25 1561.90
  L 652.99 1564.36
  L 652.60 1564.49
  L 652.18 1564.45
  L 650.25 1563.97
  L 647.96 1563.55
  L 645.32 1563.21
  L 642.32 1562.94
  L 638.96 1562.74
  L 635.25 1562.61
  L 631.18 1562.54
  L 626.76 1562.55
  L 624.34 1562.66
  L 622.40 1562.93
  L 621.60 1563.12
  L 620.93 1563.36
  L 620.37 1563.64
  L 619.93 1563.96
  L 619.71 1564.09
  L 619.47 1564.15
  L 619.21 1564.12
  L 618.98 1564.01
  L 617.46 1562.90
  L 616.50 1562.10
  L 610.60 1556.57
  L 603.38 1550.07
  L 594.81 1542.56
  L 582.98 1532.37
  L 574.16 1524.79
  L 568.68 1519.99
  L 565.67 1517.18
  L 561.44 1512.96
  L 558.13 1509.65
  L 555.75 1507.36
  L 553.63 1505.43
  L 551.76 1503.87
  L 551.19 1503.48
  L 550.67 1503.23
  L 550.19 1503.13
  L 549.75 1503.18
  L 549.75 1503.18
  L 549.48 1503.30
  L 549.19 1503.54
  L 548.88 1503.96
  L 548.20 1505.28
  L 547.51 1506.70
  L 546.81 1507.89
  L 546.08 1508.85
  L 545.33 1509.58
  L 541.06 1513.12
  L 536.37 1517.11
  L 524.45 1527.54
  L 517.28 1533.84
  L 510.66 1539.50
  L 501.36 1547.28
  L 492.74 1554.48
  L 486.52 1559.77
  L 485.43 1560.65
  L 484.31 1561.43
  L 483.31 1562.04
  L 482.29 1562.58
  L 481.22 1563.08
  L 480.13 1563.51
  L 478.98 1563.90
  L 477.81 1564.22
  L 476.59 1564.49
  L 475.36 1564.70
  L 474.07 1564.85
  L 472.76 1564.95
  L 470.04 1564.97
  L 467.18 1564.77
  L 464.21 1564.34
  L 455.32 1562.82
  L 448.81 1561.86
  Z"
/>
<path fill="#ececec" d="
  M 1469.50 1452.95
  L 1469.19 1453.49
  L 1468.96 1454.14
  L 1468.80 1454.89
  L 1468.71 1455.75
  L 1468.62 1458.42
  L 1468.58 1462.60
  L 1468.59 1475.50
  L 1468.68 1499.43
  L 1468.66 1520.90
  L 1468.54 1539.93
  L 1468.32 1556.51
  L 1468.19 1559.31
  L 1468.05 1560.36
  L 1467.84 1561.28
  L 1467.56 1562.09
  L 1467.22 1562.78
  L 1466.79 1563.37
  L 1466.27 1563.87
  L 1465.70 1564.25
  L 1465.03 1564.54
  L 1464.29 1564.73
  L 1463.44 1564.82
  L 1458.12 1565.01
  L 1452.71 1565.06
  L 1447.23 1564.99
  L 1441.66 1564.79
  L 1441.17 1564.68
  L 1440.77 1564.39
  L 1440.49 1563.97
  L 1440.40 1563.48
  L 1440.40 1414.21
  L 1440.46 1413.92
  L 1440.62 1413.67
  L 1440.87 1413.50
  L 1441.16 1413.43
  L 1449.32 1413.17
  L 1456.89 1413.04
  L 1463.86 1413.06
  L 1470.25 1413.22
  L 1471.72 1413.36
  L 1473.07 1413.67
  L 1474.31 1414.15
  L 1475.42 1414.80
  L 1475.42 1414.80
  L 1475.42 1414.80
  L 1476.44 1415.64
  L 1477.33 1416.66
  L 1483.26 1424.64
  L 1486.78 1429.53
  L 1488.78 1432.31
  L 1491.38 1435.67
  L 1494.23 1439.39
  L 1496.33 1442.42
  L 1496.33 1442.42
  L 1497.20 1443.68
  L 1498.21 1445.03
  L 1501.11 1448.57
  L 1503.65 1451.65
  L 1505.38 1453.96
  L 1506.69 1455.77
  L 1508.19 1457.71
  L 1511.75 1461.99
  L 1513.46 1464.10
  L 1515.63 1467.06
  L 1518.07 1470.38
  L 1520.05 1472.77
  L 1521.54 1474.47
  L 1522.86 1476.08
  L 1524.02 1477.58
  L 1525.02 1478.99
  L 1527.16 1481.95
  L 1530.21 1485.75
  L 1533.50 1489.86
  L 1534.68 1491.48
  L 1535.72 1493.04
  L 1536.66 1494.45
  L 1537.64 1495.78
  L 1538.65 1497.05
  L 1539.70 1498.25
  L 1540.90 1499.67
  L 1542.62 1501.92
  L 1545.16 1505.19
  L 1546.17 1506.36
  L 1547.13 1507.35
  L 1550.91 1510.99
  L 1550.99 1511.05
  L 1551.24 1511.21
  L 1551.52 1511.32
  L 1551.82 1511.37
  L 1552.12 1511.35
  L 1552.41 1511.27
  L 1552.69 1511.14
  L 1552.92 1510.95
  L 1553.12 1510.72
  L 1557.11 1505.03
  L 1560.56 1500.30
  L 1563.82 1496.07
  L 1566.99 1492.20
  L 1568.76 1489.98
  L 1570.98 1486.91
  L 1573.41 1483.57
  L 1575.34 1481.23
  L 1576.71 1479.65
  L 1578.11 1477.92
  L 1581.54 1473.35
  L 1584.65 1469.20
  L 1585.87 1467.67
  L 1587.06 1466.29
  L 1588.94 1464.01
  L 1591.27 1460.84
  L 1593.58 1457.68
  L 1595.47 1455.37
  L 1597.38 1453.02
  L 1599.89 1449.59
  L 1601.66 1447.14
  L 1602.98 1445.41
  L 1604.19 1443.95
  L 1605.35 1442.70
  L 1606.90 1441.05
  L 1608.50 1439.16
  L 1610.26 1436.95
  L 1612.63 1433.83
  L 1615.59 1429.95
  L 1617.89 1427.09
  L 1619.77 1424.79
  L 1621.92 1422.03
  L 1627.01 1415.19
  L 1627.40 1414.74
  L 1627.85 1414.36
  L 1628.36 1414.07
  L 1628.92 1413.86
  L 1630.42 1413.50
  L 1632.01 1413.23
  L 1633.71 1413.05
  L 1635.50 1412.96
  L 1641.32 1412.90
  L 1646.97 1413.00
  L 1652.44 1413.27
  L 1657.74 1413.70
  L 1658.90 1413.90
  L 1659.90 1414.23
  L 1660.74 1414.71
  L 1661.41 1415.32
  L 1661.41 1415.32
  L 1661.41 1415.32
  L 1661.91 1416.05
  L 1662.26 1416.90
  L 1662.45 1417.88
  L 1662.50 1418.99
  L 1662.54 1421.73
  L 1662.78 1426.52
  L 1663.05 1431.83
  L 1663.12 1435.34
  L 1663.00 1485.98
  L 1663.11 1542.85
  L 1663.01 1550.53
  L 1662.91 1556.33
  L 1662.90 1560.47
  L 1662.80 1561.21
  L 1662.50 1561.88
  L 1662.01 1562.45
  L 1661.39 1562.85
  L 1659.56 1563.58
  L 1657.63 1564.14
  L 1655.61 1564.52
  L 1653.49 1564.74
  L 1648.93 1564.96
  L 1644.43 1565.06
  L 1640.01 1565.05
  L 1635.66 1564.93
  L 1635.25 1564.88
  L 1634.86 1564.77
  L 1634.48 1564.60
  L 1634.14 1564.37
  L 1633.83 1564.10
  L 1633.57 1563.78
  L 1633.36 1563.42
  L 1633.21 1563.04
  L 1632.79 1561.47
  L 1632.49 1559.89
  L 1632.31 1558.32
  L 1632.25 1556.75
  L 1632.29 1542.49
  L 1632.26 1505.21
  L 1632.09 1457.45
  L 1632.05 1456.16
  L 1631.95 1454.95
  L 1631.79 1453.82
  L 1631.56 1452.77
  L 1631.54 1452.72
  L 1631.43 1452.55
  L 1631.27 1452.45
  L 1631.07 1452.42
  L 1630.88 1452.47
  L 1630.08 1452.95
  L 1629.27 1453.54
  L 1628.50 1454.22
  L 1627.72 1455.01
  L 1626.96 1455.91
  L 1626.17 1456.95
  L 1624.24 1459.81
  L 1622.45 1462.46
  L 1621.74 1463.38
  L 1621.07 1464.18
  L 1619.74 1465.77
  L 1618.08 1467.97
  L 1615.95 1470.76
  L 1612.89 1474.47
  L 1609.61 1478.49
  L 1607.42 1481.42
  L 1606.28 1482.98
  L 1604.95 1484.66
  L 1601.22 1489.06
  L 1597.33 1493.66
  L 1595.99 1495.39
  L 1594.87 1496.98
  L 1593.92 1498.33
  L 1592.85 1499.73
  L 1589.82 1503.32
  L 1586.85 1506.81
  L 1585.76 1508.21
  L 1584.78 1509.56
  L 1583.38 1511.49
  L 1581.88 1513.44
  L 1580.27 1515.39
  L 1578.56 1517.36
  L 1577.67 1518.40
  L 1576.76 1519.58
  L 1574.46 1522.82
  L 1572.34 1525.82
  L 1570.62 1528.05
  L 1565.80 1534.15
  L 1560.58 1541.11
  L 1560.17 1541.57
  L 1559.68 1541.93
  L 1559.13 1542.20
  L 1558.54 1542.36
  L 1555.61 1542.77
  L 1552.95 1543.04
  L 1550.52 1543.18
  L 1548.25 1543.19
  L 1546.18 1543.07
  L 1544.27 1542.81
  L 1542.57 1542.42
  L 1541.04 1541.90
  L 1540.65 1541.68
  L 1540.32 1541.38
  L 1538.21 1538.75
  L 1535.25 1534.80
  L 1531.50 1529.83
  L 1528.60 1526.27
  L 1527.06 1524.32
  L 1525.20 1521.60
  L 1523.03 1518.47
  L 1522.11 1517.31
  L 1521.19 1516.27
  L 1520.09 1515.04
  L 1518.86 1513.57
  L 1516.06 1509.87
  L 1513.78 1506.87
  L 1510.60 1502.98
  L 1507.52 1499.21
  L 1505.48 1496.49
  L 1504.38 1494.99
  L 1503.16 1493.43
  L 1499.83 1489.48
  L 1496.70 1485.79
  L 1494.42 1482.87
  L 1491.87 1479.50
  L 1488.97 1475.83
  L 1486.12 1472.21
  L 1482.95 1468.06
  L 1475.63 1458.14
  L 1474.49 1456.69
  L 1473.22 1455.32
  L 1471.81 1454.03
  L 1470.28 1452.82
  L 1470.08 1452.73
  L 1469.86 1452.72
  L 1469.66 1452.80
  L 1469.50 1452.95
  L 1469.50 1452.95
  Z"
/>
<path fill="#ececec" d="
  M 1211.23 1414.40
  L 1215.34 1415.37
  L 1219.29 1416.50
  L 1223.06 1417.81
  L 1226.66 1419.28
  L 1230.09 1420.92
  L 1233.35 1422.73
  L 1236.43 1424.70
  L 1239.35 1426.85
  L 1240.74 1427.99
  L 1242.07 1429.17
  L 1243.36 1430.40
  L 1244.60 1431.67
  L 1244.60 1431.67
  L 1244.60 1431.67
  L 1244.60 1431.67
  L 1246.42 1433.73
  L 1248.12 1435.90
  L 1249.70 1438.17
  L 1251.17 1440.56
  L 1252.51 1443.06
  L 1253.74 1445.67
  L 1254.85 1448.38
  L 1255.85 1451.21
  L 1257.39 1460.41
  L 1257.67 1462.46
  L 1257.84 1464.69
  L 1257.91 1467.09
  L 1257.88 1469.67
  L 1257.92 1473.03
  L 1258.20 1477.62
  L 1258.74 1483.45
  L 1259.52 1490.50
  L 1259.94 1494.92
  L 1260.15 1499.34
  L 1260.16 1503.70
  L 1259.96 1508.01
  L 1259.56 1512.24
  L 1258.94 1516.38
  L 1258.13 1520.38
  L 1257.12 1524.27
  L 1255.92 1527.99
  L 1254.53 1531.58
  L 1252.95 1535.00
  L 1251.19 1538.26
  L 1250.25 1539.83
  L 1249.24 1541.36
  L 1248.21 1542.85
  L 1247.12 1544.30
  L 1245.99 1545.69
  L 1244.82 1547.04
  L 1243.61 1548.34
  L 1242.35 1549.61
  L 1240.28 1551.46
  L 1237.96 1553.21
  L 1235.37 1554.90
  L 1232.54 1556.50
  L 1229.44 1558.03
  L 1226.11 1559.46
  L 1222.55 1560.81
  L 1218.72 1562.07
  L 1217.17 1562.52
  L 1215.55 1562.91
  L 1212.15 1563.57
  L 1208.49 1564.02
  L 1204.60 1564.29
  L 1199.32 1564.61
  L 1191.53 1565.06
  L 1188.38 1565.15
  L 1185.46 1565.17
  L 1156.67 1565.08
  L 1124.43 1565.16
  L 1117.56 1565.08
  L 1114.41 1564.96
  L 1111.46 1564.79
  L 1105.99 1564.48
  L 1102.05 1564.27
  L 1099.22 1564.03
  L 1096.66 1563.70
  L 1094.23 1563.26
  L 1091.24 1562.59
  L 1088.43 1561.89
  L 1085.78 1561.16
  L 1083.27 1560.39
  L 1080.87 1559.57
  L 1078.59 1558.71
  L 1076.42 1557.79
  L 1074.37 1556.84
  L 1072.39 1555.81
  L 1070.53 1554.75
  L 1068.72 1553.60
  L 1067.03 1552.41
  L 1065.43 1551.15
  L 1063.88 1549.82
  L 1062.43 1548.43
  L 1061.05 1546.96
  L 1059.18 1544.70
  L 1057.48 1542.30
  L 1055.92 1539.72
  L 1054.53 1536.99
  L 1053.13 1533.75
  L 1052.03 1530.65
  L 1051.59 1529.16
  L 1051.22 1527.70
  L 1050.92 1526.27
  L 1050.70 1524.88
  L 1049.84 1517.20
  L 1049.54 1514.13
  L 1049.30 1510.96
  L 1049.12 1507.59
  L 1048.99 1503.99
  L 1048.90 1495.87
  L 1048.98 1483.53
  L 1048.99 1482.76
  L 1049.06 1477.61
  L 1049.19 1473.29
  L 1049.38 1469.39
  L 1049.64 1465.83
  L 1049.98 1462.46
  L 1050.41 1459.27
  L 1050.92 1456.27
  L 1051.52 1453.40
  L 1052.23 1450.62
  L 1053.05 1447.96
  L 1053.97 1445.44
  L 1055.00 1443.04
  L 1056.14 1440.74
  L 1057.39 1438.55
  L 1058.76 1436.44
  L 1060.25 1434.44
  L 1061.53 1432.90
  L 1062.91 1431.40
  L 1064.35 1429.98
  L 1065.90 1428.59
  L 1067.50 1427.29
  L 1069.20 1426.03
  L 1070.98 1424.83
  L 1072.86 1423.68
  L 1075.53 1422.20
  L 1078.35 1420.82
  L 1081.31 1419.52
  L 1084.40 1418.31
  L 1087.64 1417.19
  L 1091.01 1416.17
  L 1094.53 1415.23
  L 1098.18 1414.38
  L 1099.78 1414.13
  L 1102.32 1413.87
  L 1110.23 1413.33
  L 1116.07 1413.11
  L 1122.30 1413.09
  L 1138.31 1413.25
  L 1155.52 1413.30
  L 1173.92 1413.26
  L 1193.51 1413.12
  L 1196.08 1413.19
  L 1199.28 1413.45
  L 1203.08 1413.89
  L 1207.51 1414.51
  L 1208.39 1414.58
  L 1209.28 1414.51
  L 1210.25 1414.37
  L 1210.74 1414.34
  L 1211.23 1414.40
  Z
  M 1221.54 1447.19
  L 1220.98 1446.48
  L 1220.38 1445.82
  L 1219.74 1445.21
  L 1219.07 1444.65
  L 1219.07 1444.65
  L 1219.07 1444.65
  L 1218.12 1443.98
  L 1217.11 1443.40
  L 1214.94 1442.33
  L 1212.77 1441.34
  L 1210.60 1440.45
  L 1208.43 1439.65
  L 1206.26 1438.94
  L 1204.08 1438.32
  L 1201.91 1437.79
  L 1199.73 1437.35
  L 1197.05 1436.95
  L 1193.38 1436.54
  L 1188.73 1436.12
  L 1183.10 1435.68
  L 1180.11 1435.53
  L 1176.33 1435.45
  L 1171.75 1435.44
  L 1166.38 1435.51
  L 1159.90 1435.57
  L 1150.73 1435.53
  L 1136.94 1435.51
  L 1131.63 1435.60
  L 1126.77 1435.76
  L 1122.07 1435.99
  L 1117.67 1436.32
  L 1113.49 1436.72
  L 1109.48 1437.22
  L 1105.53 1437.87
  L 1101.79 1438.70
  L 1098.27 1439.70
  L 1094.97 1440.88
  L 1093.69 1441.45
  L 1092.48 1442.11
  L 1090.99 1443.11
  L 1089.59 1444.30
  L 1088.31 1445.62
  L 1087.11 1447.13
  L 1086.02 1448.79
  L 1085.03 1450.62
  L 1084.12 1452.63
  L 1083.31 1454.80
  L 1082.61 1457.10
  L 1082.00 1459.56
  L 1081.47 1462.21
  L 1081.02 1465.03
  L 1080.67 1468.00
  L 1080.38 1471.24
  L 1080.15 1474.75
  L 1079.93 1479.34
  L 1079.84 1481.42
  L 1079.70 1485.26
  L 1079.64 1489.06
  L 1079.65 1492.84
  L 1079.74 1496.58
  L 1079.91 1500.30
  L 1080.15 1503.98
  L 1080.47 1507.64
  L 1080.86 1511.26
  L 1081.20 1513.81
  L 1081.56 1516.09
  L 1081.95 1518.09
  L 1082.36 1519.82
  L 1083.11 1522.53
  L 1083.74 1524.59
  L 1084.38 1526.38
  L 1085.04 1527.95
  L 1085.76 1529.37
  L 1086.54 1530.65
  L 1087.42 1531.82
  L 1088.38 1532.87
  L 1089.06 1533.51
  L 1089.81 1534.12
  L 1091.42 1535.20
  L 1093.28 1536.15
  L 1095.36 1536.95
  L 1099.30 1538.17
  L 1103.42 1539.25
  L 1107.72 1540.17
  L 1112.20 1540.95
  L 1114.25 1541.23
  L 1116.45 1541.45
  L 1122.13 1541.84
  L 1127.51 1542.20
  L 1130.40 1542.42
  L 1133.27 1542.59
  L 1136.14 1542.69
  L 1139.00 1542.73
  L 1144.21 1542.76
  L 1159.01 1542.78
  L 1164.90 1542.71
  L 1170.35 1542.58
  L 1175.61 1542.39
  L 1180.57 1542.14
  L 1185.26 1541.81
  L 1189.74 1541.42
  L 1195.72 1540.75
  L 1200.84 1539.99
  L 1203.08 1539.57
  L 1205.10 1539.13
  L 1206.91 1538.67
  L 1208.50 1538.19
  L 1210.42 1537.49
  L 1212.24 1536.70
  L 1213.95 1535.83
  L 1215.56 1534.86
  L 1217.07 1533.81
  L 1218.47 1532.67
  L 1219.76 1531.45
  L 1220.95 1530.13
  L 1220.95 1530.13
  L 1222.36 1528.26
  L 1223.59 1526.24
  L 1224.64 1524.06
  L 1225.50 1521.73
  L 1225.79 1520.58
  L 1226.03 1519.04
  L 1226.23 1517.11
  L 1226.39 1514.79
  L 1226.57 1508.99
  L 1226.59 1501.62
  L 1226.61 1490.54
  L 1226.64 1480.20
  L 1226.52 1472.67
  L 1226.22 1466.04
  L 1226.00 1463.04
  L 1225.73 1460.20
  L 1225.48 1458.30
  L 1225.16 1456.55
  L 1224.76 1454.93
  L 1224.29 1453.46
  L 1223.45 1451.21
  L 1222.71 1449.41
  L 1222.08 1448.07
  L 1221.54 1447.19
  Z"
/>
<path fill="#ececec" d="
  M 862.87 1413.38
  L 863.00 1413.43
  L 863.05 1413.56
  L 863.05 1561.55
  L 863.05 1561.56
  L 862.98 1561.87
  L 862.80 1562.13
  L 862.53 1562.30
  L 862.22 1562.36
  L 858.94 1562.29
  L 855.67 1562.28
  L 852.42 1562.35
  L 849.17 1562.49
  L 845.94 1562.69
  L 842.72 1562.97
  L 839.51 1563.31
  L 836.31 1563.73
  L 835.77 1563.69
  L 834.99 1563.46
  L 833.96 1563.03
  L 832.70 1562.40
  L 832.42 1562.20
  L 832.21 1561.94
  L 832.08 1561.62
  L 832.03 1561.29
  L 832.03 1413.93
  L 832.07 1413.72
  L 832.19 1413.54
  L 832.37 1413.42
  L 832.58 1413.38
  L 862.87 1413.38
  Z"
/>
</svg>
