<?xml version="1.0" encoding="UTF-8" standalone="no"?>
<!DOCTYPE svg PUBLIC "-//W3C//DTD SVG 1.1//EN" "http://www.w3.org/Graphics/SVG/1.1/DTD/svg11.dtd">
<svg xmlns="http://www.w3.org/2000/svg" version="1.1" viewBox="0.00 0.00 200.00 200.00">
<path fill="#efeeef" d="
  M 102.24 25.50
  L 102.46 25.58
  L 102.73 25.80
  L 103.37 26.69
  L 140.17 87.22
  L 157.54 115.66
  L 157.69 115.84
  L 157.90 115.95
  L 158.13 116.00
  L 158.37 115.96
  L 165.96 113.41
  L 166.23 113.43
  L 166.41 113.63
  L 166.51 113.90
  L 166.51 114.04
  L 166.41 114.13
  L 166.41 114.13
  L 159.27 117.08
  L 159.22 117.10
  L 158.99 117.29
  L 158.86 117.55
  L 158.83 117.84
  L 158.93 118.12
  L 189.59 168.66
  L 189.64 168.80
  L 189.61 168.98
  L 189.51 169.12
  L 189.35 169.19
  L 189.17 169.18
  L 105.11 140.68
  L 104.57 140.51
  L 102.21 140.51
  L 99.86 140.51
  L 99.32 140.68
  L 15.25 169.15
  L 15.07 169.16
  L 14.91 169.09
  L 14.80 168.94
  L 14.78 168.77
  L 14.78 168.77
  L 14.78 168.77
  L 14.83 168.62
  L 45.51 118.10
  L 45.60 117.82
  L 45.58 117.52
  L 45.44 117.26
  L 45.21 117.08
  L 45.17 117.06
  L 38.03 114.10
  L 38.02 114.10
  L 37.93 114.01
  L 37.93 113.87
  L 38.03 113.60
  L 38.21 113.40
  L 38.48 113.38
  L 46.07 115.94
  L 46.30 115.97
  L 46.54 115.93
  L 46.74 115.82
  L 46.90 115.64
  L 64.28 87.21
  L 101.10 26.69
  L 101.75 25.80
  L 102.01 25.58
  L 102.24 25.50
  Z
  M 102.23 130.37
  L 101.65 130.42
  L 101.04 130.55
  L 100.39 130.79
  L 99.72 131.11
  L 99.53 131.12
  L 99.41 130.98
  L 99.41 130.98
  L 99.40 130.92
  L 101.85 35.64
  L 101.81 35.48
  L 101.70 35.36
  L 101.54 35.31
  L 101.38 35.35
  L 101.38 35.35
  L 101.26 35.46
  L 50.60 116.91
  L 50.55 117.06
  L 50.56 117.23
  L 50.64 117.37
  L 50.77 117.46
  L 50.77 117.46
  L 50.81 117.48
  L 98.77 133.74
  L 99.11 133.81
  L 99.47 133.78
  L 99.95 133.61
  L 100.58 133.30
  L 101.50 132.86
  L 101.89 132.76
  L 102.23 132.73
  L 102.57 132.76
  L 102.96 132.86
  L 103.88 133.30
  L 104.51 133.61
  L 104.99 133.78
  L 105.35 133.81
  L 105.69 133.74
  L 153.64 117.44
  L 153.68 117.42
  L 153.81 117.33
  L 153.89 117.19
  L 153.90 117.02
  L 153.85 116.87
  L 103.12 35.46
  L 103.00 35.35
  L 102.84 35.31
  L 102.69 35.36
  L 102.57 35.48
  L 102.53 35.64
  L 105.06 130.92
  L 105.05 130.97
  L 104.93 131.12
  L 104.74 131.11
  L 104.07 130.79
  L 103.42 130.55
  L 102.81 130.42
  L 102.23 130.37
  Z
  M 22.79 160.60
  L 92.00 137.33
  L 92.22 137.19
  L 92.35 136.96
  L 92.35 136.69
  L 92.22 136.46
  L 92.04 136.33
  L 50.14 118.91
  L 49.86 118.85
  L 49.58 118.88
  L 49.33 119.01
  L 49.14 119.22
  L 22.63 160.40
  L 22.61 160.46
  L 22.66 160.58
  L 22.79 160.60
  Z
  M 155.14 118.90
  L 155.13 118.89
  L 154.96 118.77
  L 154.77 118.79
  L 111.86 136.50
  L 111.71 136.63
  L 111.69 136.88
  L 111.88 137.06
  L 181.10 160.54
  L 181.29 160.54
  L 181.41 160.46
  L 181.48 160.35
  L 181.50 160.22
  L 181.45 160.09
  L 155.14 118.90
  Z"
/>
<path fill="#efeeef" d="
  M 102.22 143.45
  L 102.27 143.45
  L 102.57 143.42
  L 102.89 143.31
  L 103.59 142.89
  L 104.00 142.63
  L 104.28 142.59
  L 104.42 142.73
  L 104.39 142.92
  L 104.39 142.92
  L 104.31 142.98
  L 104.17 143.28
  L 104.04 144.05
  L 103.86 147.00
  L 102.52 168.73
  L 102.48 168.87
  L 102.48 168.87
  L 102.36 168.95
  L 102.18 168.97
  L 102.00 168.94
  L 101.88 168.87
  L 101.83 168.73
  L 100.57 146.99
  L 100.40 144.04
  L 100.28 143.27
  L 100.14 142.97
  L 100.06 142.92
  L 100.02 142.72
  L 100.17 142.58
  L 100.44 142.62
  L 100.86 142.89
  L 101.55 143.31
  L 101.87 143.41
  L 102.17 143.45
  L 102.22 143.45
  Z"
/>
</svg>
