<?xml version="1.0" encoding="UTF-8" standalone="no"?>
<!DOCTYPE svg PUBLIC "-//W3C//DTD SVG 1.1//EN" "http://www.w3.org/Graphics/SVG/1.1/DTD/svg11.dtd">
<svg xmlns="http://www.w3.org/2000/svg" version="1.1" viewBox="0.00 0.00 200.00 200.00">
<path fill="#eeeeee" d="
  M 18.91 154.26
  L 18.88 154.24
  L 18.72 154.08
  L 18.65 153.86
  L 18.66 153.61
  L 18.77 153.38
  L 20.48 151.21
  L 23.30 147.83
  L 25.96 144.80
  L 29.02 141.54
  L 32.58 137.93
  L 37.83 132.76
  L 44.94 125.76
  L 45.56 125.26
  L 46.39 124.68
  L 47.22 124.01
  L 49.27 122.12
  L 51.50 120.06
  L 56.94 115.54
  L 62.47 111.13
  L 68.07 106.83
  L 73.75 102.64
  L 79.47 98.59
  L 85.28 94.63
  L 91.16 90.79
  L 97.12 87.06
  L 103.16 83.43
  L 109.27 79.91
  L 115.47 76.50
  L 121.74 73.20
  L 125.74 71.23
  L 130.44 69.04
  L 139.20 65.02
  L 144.61 62.65
  L 150.28 60.42
  L 156.22 58.31
  L 162.42 56.34
  L 164.85 55.65
  L 167.28 55.04
  L 169.72 54.51
  L 172.15 54.06
  L 182.16 52.32
  L 183.03 52.28
  L 184.37 52.27
  L 185.02 52.17
  L 185.64 52.02
  L 185.64 52.02
  L 185.64 52.02
  L 185.64 52.02
  L 186.37 51.76
  L 187.07 51.41
  L 187.31 51.34
  L 187.56 51.40
  L 187.75 51.56
  L 187.84 51.80
  L 187.84 51.80
  L 187.82 52.01
  L 187.64 52.58
  L 187.41 53.03
  L 187.03 53.36
  L 183.76 55.47
  L 179.41 58.51
  L 175.08 61.53
  L 104.18 108.42
  L 100.70 110.60
  L 96.79 112.78
  L 70.42 126.85
  L 43.62 141.27
  L 39.21 143.62
  L 33.72 146.46
  L 27.15 149.88
  L 22.02 152.68
  L 19.26 154.25
  L 19.06 154.30
  L 18.91 154.26
  Z"
/>
<path fill="#eeeeee" d="
  M 44.94 114.88
  L 69.74 76.11
  L 69.76 76.08
  L 69.76 75.84
  L 69.58 75.68
  L 9.23 56.86
  L 9.05 56.77
  L 8.92 56.64
  L 8.79 56.32
  L 8.86 55.99
  L 9.08 55.74
  L 9.41 55.64
  L 13.93 55.68
  L 20.05 55.94
  L 25.59 56.18
  L 29.75 56.26
  L 78.09 56.31
  L 139.50 56.26
  L 140.74 56.16
  L 141.80 55.90
  L 142.08 55.89
  L 142.32 56.05
  L 142.52 56.40
  L 142.57 56.74
  L 142.57 56.74
  L 142.49 57.03
  L 142.31 57.28
  L 142.04 57.43
  L 137.88 58.81
  L 133.74 60.27
  L 133.74 60.27
  L 133.74 60.27
  L 133.74 60.27
  L 133.74 60.27
  L 128.38 62.31
  L 123.06 64.49
  L 117.80 66.81
  L 112.60 69.27
  L 107.44 71.88
  L 102.33 74.63
  L 97.28 77.52
  L 92.28 80.56
  L 84.95 85.22
  L 78.23 89.66
  L 72.12 93.88
  L 66.62 97.89
  L 61.26 102.01
  L 55.94 106.28
  L 50.66 110.71
  L 45.42 115.29
  L 45.26 115.37
  L 45.09 115.35
  L 44.95 115.24
  L 44.89 115.08
  L 44.94 114.88
  Z"
/>
</svg>
