<?xml version="1.0" encoding="UTF-8" standalone="no"?>
<!DOCTYPE svg PUBLIC "-//W3C//DTD SVG 1.1//EN" "http://www.w3.org/Graphics/SVG/1.1/DTD/svg11.dtd">
<svg xmlns="http://www.w3.org/2000/svg" version="1.1" viewBox="0.00 0.00 1773.00 1773.00">
<path fill="#eeeeee" d="
  M 521.62 987.51
  L 521.34 987.04
  L 521.34 987.04
  L 521.22 986.52
  L 521.23 985.95
  L 521.38 985.32
  L 521.68 984.63
  L 523.34 981.64
  L 525.29 978.62
  L 527.51 975.57
  L 530.01 972.50
  L 537.11 964.04
  L 542.00 958.19
  L 545.62 953.95
  L 548.95 950.17
  L 552.08 946.76
  L 554.31 944.25
  L 557.39 940.51
  L 560.96 936.20
  L 562.28 934.72
  L 563.48 933.48
  L 606.30 890.90
  L 627.24 869.95
  L 647.85 849.24
  L 651.70 845.50
  L 653.32 844.06
  L 654.72 842.89
  L 655.95 841.93
  L 660.98 837.90
  L 662.83 836.33
  L 664.34 834.95
  L 669.56 830.18
  L 676.18 824.42
  L 678.33 822.47
  L 681.16 819.70
  L 684.84 816.13
  L 686.28 814.86
  L 687.65 813.76
  L 691.37 810.80
  L 696.19 806.68
  L 701.79 801.94
  L 704.04 800.14
  L 706.17 798.53
  L 710.08 795.57
  L 713.88 792.51
  L 717.55 789.36
  L 721.11 786.10
  L 722.77 784.60
  L 724.66 783.02
  L 729.86 779.00
  L 734.43 775.48
  L 736.09 774.12
  L 737.56 772.84
  L 740.05 770.65
  L 742.36 768.74
  L 744.48 767.08
  L 746.43 765.70
  L 748.42 764.30
  L 750.55 762.68
  L 752.85 760.83
  L 755.92 758.25
  L 760.75 754.24
  L 762.70 752.71
  L 764.54 751.35
  L 766.70 749.70
  L 769.72 747.23
  L 772.47 744.98
  L 774.54 743.36
  L 776.41 742.00
  L 778.16 740.84
  L 779.70 739.83
  L 781.31 738.71
  L 785.38 735.59
  L 789.56 732.39
  L 791.24 731.20
  L 792.88 730.12
  L 795.65 728.23
  L 799.40 725.40
  L 803.42 722.38
  L 804.94 721.33
  L 806.36 720.43
  L 807.88 719.48
  L 809.38 718.46
  L 810.88 717.38
  L 812.36 716.22
  L 814.58 714.58
  L 817.83 712.47
  L 820.91 710.47
  L 823.07 708.91
  L 825.66 707.00
  L 828.97 704.77
  L 832.23 702.57
  L 834.82 700.68
  L 835.18 700.41
  L 839.53 697.13
  L 842.58 694.95
  L 866.35 679.05
  L 898.09 657.94
  L 904.27 653.90
  L 910.13 650.19
  L 915.66 646.80
  L 920.88 643.74
  L 929.03 638.99
  L 936.27 634.59
  L 944.84 629.31
  L 951.57 625.31
  L 996.77 599.26
  L 1001.10 596.89
  L 1008.06 593.25
  L 1018.55 587.73
  L 1022.35 585.63
  L 1025.59 583.76
  L 1025.68 583.70
  L 1031.10 580.52
  L 1035.41 578.04
  L 1039.17 575.97
  L 1042.31 574.33
  L 1052.70 569.09
  L 1065.71 562.55
  L 1075.19 557.94
  L 1083.82 553.94
  L 1091.87 550.45
  L 1093.93 549.58
  L 1100.24 546.81
  L 1106.81 543.77
  L 1113.93 540.33
  L 1123.99 535.33
  L 1129.46 532.60
  L 1134.06 530.38
  L 1138.94 528.15
  L 1144.30 525.83
  L 1151.73 522.73
  L 1170.85 514.92
  L 1195.33 505.13
  L 1203.49 501.94
  L 1211.70 498.84
  L 1219.96 495.81
  L 1228.28 492.87
  L 1236.64 490.01
  L 1245.07 487.23
  L 1253.54 484.54
  L 1262.07 481.92
  L 1267.52 480.35
  L 1271.88 479.24
  L 1274.53 478.56
  L 1278.04 477.52
  L 1281.81 476.41
  L 1284.92 475.58
  L 1293.76 473.44
  L 1302.61 471.39
  L 1311.44 469.44
  L 1320.28 467.59
  L 1324.69 466.72
  L 1328.86 465.96
  L 1332.79 465.30
  L 1336.48 464.76
  L 1345.97 463.39
  L 1349.40 462.83
  L 1351.95 462.36
  L 1354.36 461.93
  L 1357.18 461.52
  L 1360.38 461.14
  L 1364.82 460.70
  L 1369.56 460.21
  L 1372.69 459.81
  L 1393.13 456.85
  L 1393.62 456.82
  L 1394.11 456.86
  L 1394.58 456.98
  L 1395.03 457.17
  L 1395.44 457.43
  L 1395.81 457.75
  L 1396.13 458.12
  L 1396.38 458.54
  L 1396.39 458.55
  L 1396.39 458.55
  L 1396.47 458.91
  L 1396.42 459.35
  L 1396.23 459.84
  L 1395.90 460.41
  L 1394.71 462.11
  L 1393.73 463.33
  L 1392.74 464.35
  L 1391.69 465.21
  L 1387.53 468.32
  L 1383.38 471.63
  L 1382.42 472.37
  L 1381.36 473.10
  L 1378.51 474.80
  L 1375.69 476.48
  L 1374.61 477.21
  L 1373.62 477.95
  L 1371.79 479.34
  L 1370.05 480.58
  L 1368.40 481.67
  L 1366.83 482.61
  L 1365.48 483.41
  L 1364.15 484.31
  L 1362.78 485.32
  L 1360.98 486.74
  L 1358.16 488.92
  L 1355.81 490.50
  L 1352.72 492.52
  L 1348.71 495.38
  L 1346.00 497.34
  L 1343.99 498.73
  L 1276.75 543.51
  L 1255.53 557.57
  L 1242.58 566.07
  L 1231.32 573.41
  L 1222.03 579.53
  L 1214.71 584.43
  L 1209.36 588.12
  L 1207.30 589.56
  L 1202.95 592.46
  L 1197.13 596.14
  L 1188.29 601.76
  L 1184.26 604.26
  L 1181.49 605.95
  L 1179.48 607.25
  L 1177.73 608.46
  L 1176.16 609.65
  L 1174.26 611.03
  L 1171.14 613.11
  L 1155.70 623.13
  L 1147.92 628.06
  L 1146.31 629.11
  L 1143.95 630.78
  L 1140.89 632.93
  L 1138.71 634.28
  L 1137.45 635.02
  L 1136.18 635.86
  L 1133.08 638.15
  L 1130.14 640.32
  L 1127.74 641.87
  L 1125.04 643.57
  L 1121.54 646.04
  L 1117.85 648.62
  L 1116.43 649.52
  L 1115.08 650.31
  L 1113.55 651.22
  L 1111.37 652.61
  L 1105.08 656.81
  L 1100.59 659.80
  L 1095.09 663.31
  L 1088.66 667.48
  L 1076.82 675.28
  L 1061.51 685.48
  L 1037.01 701.93
  L 1034.87 703.54
  L 1032.97 705.00
  L 1031.63 705.89
  L 1027.28 708.57
  L 1021.59 712.38
  L 1016.51 715.77
  L 996.47 728.84
  L 977.97 741.14
  L 967.83 747.85
  L 958.54 753.75
  L 949.16 759.46
  L 938.65 765.61
  L 927.11 772.27
  L 920.42 776.05
  L 912.45 780.31
  L 902.57 785.33
  L 898.28 787.52
  L 893.68 789.97
  L 888.66 792.73
  L 881.88 796.54
  L 871.08 802.57
  L 866.90 804.82
  L 863.03 806.82
  L 850.78 813.02
  L 842.73 817.03
  L 837.91 819.46
  L 832.76 822.19
  L 827.13 825.27
  L 819.53 829.54
  L 812.23 833.64
  L 806.85 836.60
  L 801.92 839.21
  L 797.33 841.55
  L 789.46 845.54
  L 781.64 849.69
  L 773.94 853.95
  L 766.58 858.20
  L 763.17 860.16
  L 759.56 862.12
  L 755.77 864.07
  L 751.79 866.02
  L 745.61 869.06
  L 739.10 872.43
  L 732.25 876.13
  L 725.06 880.17
  L 711.25 887.94
  L 705.96 890.82
  L 701.76 893.01
  L 698.37 894.78
  L 694.66 896.82
  L 690.63 899.11
  L 686.28 901.67
  L 680.51 905.00
  L 676.89 906.98
  L 672.99 909.03
  L 662.16 914.46
  L 653.02 919.01
  L 647.39 921.88
  L 641.97 924.74
  L 636.77 927.61
  L 631.78 930.47
  L 627.60 932.86
  L 623.03 935.40
  L 618.10 938.06
  L 612.74 940.88
  L 600.84 946.93
  L 584.92 954.81
  L 574.20 960.10
  L 567.68 963.41
  L 560.44 967.44
  L 545.85 975.82
  L 540.11 979.06
  L 534.42 982.13
  L 528.77 985.02
  L 523.18 987.74
  L 522.59 987.92
  L 522.33 987.92
  L 522.09 987.87
  L 522.09 987.87
  L 521.84 987.73
  L 521.62 987.51
  Z"
/>
<path fill="#eeeeee" d="
  M 657.64 786.75
  L 657.28 786.67
  L 656.97 786.51
  L 656.70 786.29
  L 656.48 786.01
  L 656.33 785.69
  L 656.26 785.35
  L 656.27 785.00
  L 656.35 784.65
  L 656.51 784.34
  L 661.01 777.54
  L 671.22 762.02
  L 674.91 756.27
  L 677.96 751.41
  L 682.99 743.34
  L 688.07 735.38
  L 693.17 727.55
  L 698.32 719.83
  L 700.49 716.55
  L 702.98 712.66
  L 709.76 701.71
  L 716.76 690.45
  L 719.13 686.79
  L 721.07 683.97
  L 723.78 679.89
  L 732.46 666.10
  L 748.12 640.90
  L 751.26 635.88
  L 754.66 630.60
  L 762.18 619.24
  L 769.22 608.57
  L 776.22 597.57
  L 777.25 596.03
  L 778.74 593.97
  L 780.07 592.15
  L 780.98 590.80
  L 781.75 589.55
  L 782.38 588.35
  L 782.59 588.05
  L 786.05 584.59
  L 786.27 584.25
  L 786.34 583.85
  L 786.25 583.46
  L 786.01 583.14
  L 785.96 583.10
  L 784.07 581.80
  L 781.99 580.64
  L 779.71 579.63
  L 777.24 578.76
  L 764.91 574.99
  L 757.16 572.72
  L 744.87 569.21
  L 740.41 567.87
  L 737.07 566.79
  L 729.32 564.23
  L 721.83 561.85
  L 715.13 559.85
  L 709.38 558.24
  L 704.21 556.80
  L 698.36 555.04
  L 691.69 552.94
  L 682.40 549.91
  L 667.58 545.13
  L 662.09 543.46
  L 657.21 542.06
  L 654.07 541.26
  L 651.26 540.54
  L 649.22 539.92
  L 635.13 535.26
  L 623.78 531.58
  L 615.15 528.86
  L 609.26 527.12
  L 596.86 523.63
  L 592.61 522.38
  L 589.66 521.46
  L 560.05 511.63
  L 534.19 502.91
  L 531.85 502.16
  L 528.51 501.17
  L 518.86 498.49
  L 512.04 496.56
  L 504.73 494.32
  L 496.74 491.71
  L 487.06 488.42
  L 483.67 487.34
  L 479.91 486.33
  L 479.63 486.26
  L 477.44 485.55
  L 474.52 484.34
  L 472.44 483.45
  L 472.03 483.22
  L 471.69 482.89
  L 471.33 482.39
  L 471.05 481.88
  L 470.83 481.35
  L 470.69 480.81
  L 470.62 479.80
  L 470.79 478.75
  L 470.90 478.50
  L 471.08 478.30
  L 471.31 478.17
  L 471.58 478.11
  L 475.17 477.93
  L 483.44 477.56
  L 489.59 477.42
  L 495.06 477.49
  L 497.56 477.60
  L 499.93 477.77
  L 505.13 478.18
  L 509.88 478.49
  L 515.94 478.81
  L 526.02 479.37
  L 528.46 479.53
  L 536.51 480.01
  L 543.57 480.29
  L 570.19 480.96
  L 579.07 481.12
  L 585.00 481.18
  L 913.00 481.19
  L 1127.76 481.27
  L 1130.67 481.21
  L 1134.48 481.03
  L 1144.79 480.29
  L 1148.28 480.08
  L 1151.23 480.05
  L 1153.24 480.07
  L 1156.97 480.16
  L 1158.31 480.29
  L 1159.44 480.47
  L 1160.41 480.73
  L 1161.20 481.06
  L 1161.82 481.46
  L 1162.29 481.96
  L 1162.51 482.35
  L 1162.65 482.77
  L 1162.70 483.21
  L 1162.66 483.66
  L 1162.54 484.09
  L 1162.33 484.48
  L 1162.05 484.82
  L 1161.70 485.11
  L 1161.65 485.14
  L 1159.21 486.56
  L 1159.21 486.56
  L 1157.52 487.40
  L 1155.79 488.17
  L 1154.02 488.86
  L 1152.20 489.46
  L 1143.58 492.16
  L 1135.38 494.82
  L 1127.60 497.44
  L 1120.23 500.02
  L 1111.18 503.32
  L 1102.87 506.49
  L 1080.04 515.53
  L 1073.94 518.03
  L 1068.14 520.48
  L 1062.65 522.88
  L 1057.46 525.23
  L 1048.79 529.15
  L 1040.05 532.90
  L 1037.40 534.00
  L 1031.22 536.67
  L 1024.30 539.88
  L 1016.54 543.67
  L 1006.11 548.95
  L 997.43 553.34
  L 991.60 556.19
  L 983.56 560.11
  L 975.39 564.27
  L 967.09 568.67
  L 958.65 573.31
  L 935.83 586.12
  L 926.30 591.56
  L 915.38 598.03
  L 906.04 603.57
  L 899.39 607.73
  L 888.08 615.14
  L 875.50 623.36
  L 866.00 629.39
  L 855.94 635.71
  L 850.81 639.08
  L 841.91 645.38
  L 833.24 651.42
  L 824.79 657.18
  L 816.56 662.68
  L 812.94 665.16
  L 810.23 667.20
  L 807.56 669.24
  L 803.99 671.69
  L 800.34 674.18
  L 797.52 676.31
  L 794.79 678.33
  L 790.87 680.92
  L 787.48 683.14
  L 785.06 684.87
  L 783.26 686.14
  L 780.43 687.97
  L 776.43 690.58
  L 775.01 691.59
  L 773.78 692.54
  L 770.06 695.47
  L 766.97 697.70
  L 765.28 698.89
  L 763.51 700.24
  L 758.99 703.95
  L 754.84 707.37
  L 753.28 708.56
  L 751.83 709.57
  L 749.83 710.96
  L 747.60 712.63
  L 741.71 717.35
  L 735.87 722.05
  L 733.61 723.76
  L 731.54 725.23
  L 729.36 726.81
  L 727.03 728.66
  L 724.55 730.78
  L 721.92 733.17
  L 720.34 734.59
  L 718.42 736.21
  L 712.71 740.78
  L 707.80 744.69
  L 704.52 747.44
  L 689.19 760.59
  L 666.41 779.83
  L 664.32 781.70
  L 662.36 783.47
  L 660.91 784.69
  L 659.66 785.64
  L 658.58 786.32
  L 657.94 786.65
  L 657.64 786.75
  Z"
/>
<path fill="#eeeeee" d="
  M 1320.30 1180.01
  L 1316.73 1178.52
  L 1311.60 1176.14
  L 1307.36 1174.16
  L 1304.22 1172.77
  L 1301.33 1171.61
  L 1298.70 1170.67
  L 1293.18 1168.94
  L 1287.60 1167.40
  L 1283.64 1166.42
  L 1279.66 1165.54
  L 1275.65 1164.74
  L 1271.62 1164.03
  L 1267.56 1163.42
  L 1263.48 1162.90
  L 1259.38 1162.47
  L 1255.25 1162.13
  L 1251.30 1161.91
  L 1246.72 1161.78
  L 1241.41 1161.73
  L 1233.87 1161.75
  L 1221.25 1161.73
  L 1218.27 1161.73
  L 1215.15 1161.81
  L 1211.89 1161.96
  L 1208.48 1162.20
  L 1204.94 1162.52
  L 1201.25 1162.92
  L 1197.41 1163.40
  L 1193.44 1163.96
  L 1191.55 1164.29
  L 1189.82 1164.67
  L 1188.23 1165.12
  L 1186.79 1165.63
  L 1184.54 1166.45
  L 1181.71 1167.34
  L 1178.53 1168.35
  L 1176.08 1169.33
  L 1175.46 1169.62
  L 1173.62 1170.41
  L 1171.66 1171.24
  L 1170.29 1172.00
  L 1169.15 1172.86
  L 1168.67 1173.33
  L 1168.23 1173.86
  L 1167.80 1174.50
  L 1167.42 1175.22
  L 1167.12 1175.98
  L 1166.87 1176.82
  L 1166.65 1177.93
  L 1166.49 1179.07
  L 1166.42 1180.26
  L 1166.41 1181.46
  L 1166.48 1182.68
  L 1166.62 1183.91
  L 1166.83 1185.13
  L 1167.12 1186.33
  L 1167.46 1187.48
  L 1167.88 1188.59
  L 1168.35 1189.64
  L 1168.88 1190.65
  L 1169.46 1191.57
  L 1170.09 1192.43
  L 1170.76 1193.21
  L 1171.49 1193.93
  L 1172.83 1195.01
  L 1174.34 1196.01
  L 1176.04 1196.94
  L 1177.92 1197.79
  L 1179.98 1198.57
  L 1182.23 1199.28
  L 1184.74 1199.94
  L 1187.63 1200.59
  L 1191.09 1201.28
  L 1194.56 1201.91
  L 1198.50 1202.55
  L 1202.49 1203.11
  L 1206.60 1203.60
  L 1210.86 1204.04
  L 1215.31 1204.42
  L 1220.16 1204.76
  L 1231.84 1205.38
  L 1239.89 1205.81
  L 1242.69 1206.02
  L 1244.69 1206.22
  L 1248.33 1206.65
  L 1251.68 1206.98
  L 1254.76 1207.20
  L 1257.56 1207.32
  L 1260.16 1207.49
  L 1263.94 1207.89
  L 1268.89 1208.50
  L 1275.02 1209.34
  L 1278.89 1209.85
  L 1283.09 1210.34
  L 1292.49 1211.23
  L 1295.29 1211.58
  L 1298.89 1212.25
  L 1303.30 1213.23
  L 1308.50 1214.52
  L 1311.27 1215.29
  L 1314.04 1216.19
  L 1316.82 1217.20
  L 1319.60 1218.33
  L 1322.39 1219.58
  L 1325.18 1220.94
  L 1327.98 1222.43
  L 1330.78 1224.03
  L 1332.35 1225.03
  L 1334.16 1226.33
  L 1335.97 1227.75
  L 1337.69 1229.20
  L 1339.15 1230.55
  L 1340.37 1231.81
  L 1341.30 1232.92
  L 1341.94 1233.89
  L 1345.65 1240.54
  L 1346.05 1241.35
  L 1346.34 1242.20
  L 1347.38 1246.41
  L 1348.17 1250.54
  L 1348.72 1254.60
  L 1349.03 1258.59
  L 1349.09 1260.55
  L 1349.09 1262.50
  L 1349.03 1264.43
  L 1348.91 1266.34
  L 1348.72 1268.23
  L 1348.48 1270.10
  L 1348.18 1271.95
  L 1347.81 1273.79
  L 1347.28 1275.86
  L 1346.59 1277.91
  L 1345.75 1279.96
  L 1344.75 1281.99
  L 1343.59 1284.00
  L 1342.28 1286.00
  L 1340.80 1287.99
  L 1339.17 1289.97
  L 1337.83 1291.46
  L 1336.46 1292.90
  L 1335.04 1294.30
  L 1333.58 1295.65
  L 1333.58 1295.65
  L 1333.58 1295.65
  L 1333.58 1295.65
  L 1333.58 1295.65
  L 1333.58 1295.65
  L 1331.37 1297.53
  L 1329.08 1299.32
  L 1326.69 1301.00
  L 1324.22 1302.59
  L 1321.66 1304.08
  L 1319.01 1305.47
  L 1316.28 1306.76
  L 1313.45 1307.95
  L 1311.29 1308.65
  L 1306.30 1310.16
  L 1302.36 1311.28
  L 1299.08 1312.08
  L 1288.26 1314.40
  L 1282.99 1315.43
  L 1277.67 1316.12
  L 1271.31 1316.72
  L 1263.92 1317.25
  L 1255.50 1317.69
  L 1250.88 1317.84
  L 1245.79 1317.91
  L 1240.23 1317.89
  L 1234.20 1317.78
  L 1227.70 1317.58
  L 1220.73 1317.29
  L 1213.30 1316.92
  L 1205.39 1316.46
  L 1202.27 1316.19
  L 1198.87 1315.77
  L 1195.19 1315.17
  L 1191.22 1314.42
  L 1184.58 1313.12
  L 1177.15 1311.77
  L 1173.63 1311.08
  L 1169.56 1310.13
  L 1164.94 1308.94
  L 1159.77 1307.50
  L 1155.83 1306.29
  L 1151.49 1304.82
  L 1146.67 1303.05
  L 1140.02 1300.50
  L 1131.75 1297.33
  L 1125.61 1295.14
  L 1124.93 1294.86
  L 1124.36 1294.51
  L 1123.92 1294.10
  L 1123.60 1293.63
  L 1123.60 1293.63
  L 1123.41 1293.12
  L 1123.32 1292.55
  L 1123.35 1291.93
  L 1123.49 1291.25
  L 1124.02 1289.56
  L 1124.69 1287.83
  L 1125.51 1286.05
  L 1126.48 1284.22
  L 1129.77 1278.42
  L 1132.64 1273.49
  L 1135.11 1269.42
  L 1137.17 1266.23
  L 1137.45 1265.87
  L 1137.78 1265.55
  L 1138.15 1265.28
  L 1138.55 1265.06
  L 1138.98 1264.90
  L 1139.43 1264.80
  L 1139.88 1264.76
  L 1140.34 1264.79
  L 1141.01 1264.92
  L 1141.71 1265.13
  L 1142.44 1265.43
  L 1143.20 1265.81
  L 1146.89 1267.79
  L 1150.29 1269.54
  L 1153.53 1271.13
  L 1156.63 1272.55
  L 1159.64 1273.85
  L 1162.59 1275.02
  L 1165.43 1276.05
  L 1168.22 1276.96
  L 1174.13 1278.72
  L 1179.63 1280.25
  L 1184.71 1281.54
  L 1189.39 1282.60
  L 1205.95 1285.47
  L 1209.46 1286.02
  L 1213.31 1286.52
  L 1217.59 1286.98
  L 1223.50 1287.55
  L 1230.75 1288.26
  L 1236.17 1288.88
  L 1238.28 1289.03
  L 1240.76 1288.97
  L 1243.71 1288.73
  L 1247.86 1288.23
  L 1251.41 1287.79
  L 1253.94 1287.55
  L 1268.25 1286.45
  L 1270.91 1286.18
  L 1273.73 1285.78
  L 1276.75 1285.23
  L 1280.78 1284.41
  L 1286.08 1283.35
  L 1288.30 1282.87
  L 1290.56 1282.22
  L 1292.98 1281.38
  L 1296.26 1280.12
  L 1298.86 1279.10
  L 1299.75 1278.73
  L 1300.61 1278.30
  L 1301.46 1277.81
  L 1302.28 1277.27
  L 1303.86 1276.00
  L 1305.36 1274.49
  L 1305.74 1273.98
  L 1306.01 1273.42
  L 1307.00 1270.69
  L 1307.72 1268.46
  L 1308.27 1266.44
  L 1308.66 1264.56
  L 1308.90 1262.77
  L 1308.99 1261.04
  L 1308.93 1259.39
  L 1308.72 1257.78
  L 1308.44 1256.48
  L 1308.04 1255.17
  L 1307.54 1253.88
  L 1306.93 1252.58
  L 1306.52 1251.88
  L 1306.04 1251.21
  L 1305.47 1250.54
  L 1304.82 1249.91
  L 1304.08 1249.26
  L 1303.27 1248.65
  L 1301.41 1247.47
  L 1299.20 1246.35
  L 1296.77 1245.36
  L 1294.18 1244.52
  L 1291.58 1243.88
  L 1286.98 1242.90
  L 1282.68 1242.00
  L 1279.57 1241.41
  L 1276.66 1240.97
  L 1273.91 1240.66
  L 1267.51 1240.09
  L 1252.47 1238.75
  L 1242.31 1237.90
  L 1226.79 1236.76
  L 1220.05 1236.27
  L 1214.75 1235.82
  L 1210.89 1235.41
  L 1208.47 1235.05
  L 1204.44 1234.33
  L 1200.19 1233.75
  L 1195.71 1233.29
  L 1191.00 1232.96
  L 1188.99 1232.81
  L 1186.60 1232.53
  L 1184.08 1232.13
  L 1181.26 1231.57
  L 1177.07 1230.66
  L 1170.38 1229.21
  L 1168.19 1228.71
  L 1165.87 1228.10
  L 1159.82 1226.25
  L 1155.72 1224.96
  L 1154.87 1224.65
  L 1154.06 1224.24
  L 1151.25 1222.65
  L 1148.26 1221.05
  L 1146.97 1220.34
  L 1145.68 1219.55
  L 1144.37 1218.66
  L 1143.05 1217.68
  L 1141.71 1216.61
  L 1140.37 1215.45
  L 1137.64 1212.85
  L 1136.58 1211.73
  L 1135.02 1209.85
  L 1133.60 1207.84
  L 1132.30 1205.67
  L 1131.14 1203.37
  L 1130.09 1200.90
  L 1129.18 1198.28
  L 1128.36 1195.45
  L 1127.66 1192.42
  L 1127.38 1190.85
  L 1127.18 1189.25
  L 1127.06 1187.62
  L 1127.03 1185.96
  L 1127.09 1184.28
  L 1127.22 1182.56
  L 1127.44 1180.82
  L 1127.75 1179.05
  L 1128.28 1176.60
  L 1128.92 1174.22
  L 1129.66 1171.90
  L 1130.49 1169.65
  L 1131.43 1167.47
  L 1132.47 1165.36
  L 1133.62 1163.31
  L 1134.86 1161.34
  L 1134.86 1161.34
  L 1134.86 1161.34
  L 1134.86 1161.34
  L 1134.86 1161.34
  L 1136.06 1159.63
  L 1137.34 1157.97
  L 1138.70 1156.37
  L 1140.14 1154.82
  L 1141.66 1153.32
  L 1143.26 1151.88
  L 1144.95 1150.49
  L 1146.71 1149.16
  L 1149.23 1147.46
  L 1151.93 1145.85
  L 1154.86 1144.33
  L 1158.00 1142.89
  L 1161.35 1141.53
  L 1165.01 1140.21
  L 1169.03 1138.91
  L 1173.64 1137.56
  L 1178.00 1136.40
  L 1181.37 1135.64
  L 1193.61 1133.35
  L 1202.92 1131.69
  L 1205.32 1131.32
  L 1207.93 1131.01
  L 1210.76 1130.76
  L 1214.57 1130.49
  L 1219.57 1130.12
  L 1223.29 1129.73
  L 1226.41 1129.45
  L 1229.81 1129.37
  L 1233.53 1129.47
  L 1238.64 1129.79
  L 1245.21 1130.18
  L 1247.43 1130.31
  L 1249.59 1130.52
  L 1251.69 1130.83
  L 1253.73 1131.22
  L 1256.33 1131.67
  L 1259.90 1132.06
  L 1262.83 1132.36
  L 1265.07 1132.67
  L 1281.02 1135.05
  L 1286.54 1135.96
  L 1292.51 1137.16
  L 1299.08 1138.68
  L 1307.30 1140.75
  L 1311.06 1141.77
  L 1314.78 1142.89
  L 1318.47 1144.10
  L 1322.12 1145.41
  L 1322.12 1145.41
  L 1322.12 1145.41
  L 1322.12 1145.41
  L 1325.40 1146.67
  L 1328.65 1148.01
  L 1331.87 1149.43
  L 1335.06 1150.93
  L 1335.56 1151.28
  L 1335.93 1151.78
  L 1336.11 1152.37
  L 1336.09 1152.99
  L 1335.86 1153.91
  L 1335.55 1154.84
  L 1335.16 1155.77
  L 1334.69 1156.71
  L 1329.31 1166.41
  L 1327.47 1169.61
  L 1326.20 1171.71
  L 1325.67 1172.69
  L 1325.00 1174.22
  L 1324.12 1176.20
  L 1323.33 1177.62
  L 1322.42 1178.83
  L 1321.93 1179.35
  L 1321.38 1179.84
  L 1321.14 1179.99
  L 1320.86 1180.07
  L 1320.58 1180.07
  L 1320.30 1180.01
  Z"
/>
<path fill="#eeeeee" d="
  M 779.46 1264.18
  L 781.31 1264.97
  L 783.44 1265.96
  L 789.48 1268.95
  L 795.69 1272.03
  L 800.05 1274.02
  L 804.03 1275.63
  L 808.07 1277.11
  L 812.18 1278.46
  L 816.36 1279.69
  L 820.60 1280.78
  L 824.90 1281.75
  L 829.27 1282.58
  L 833.71 1283.29
  L 844.78 1284.93
  L 849.79 1285.77
  L 853.99 1286.38
  L 857.76 1286.82
  L 861.10 1287.08
  L 863.99 1287.29
  L 867.30 1287.60
  L 875.21 1288.57
  L 876.44 1288.67
  L 877.84 1288.65
  L 880.46 1288.45
  L 901.97 1286.71
  L 905.95 1286.35
  L 909.63 1285.93
  L 913.00 1285.46
  L 916.08 1284.92
  L 924.42 1283.27
  L 930.04 1282.06
  L 931.76 1281.62
  L 933.43 1281.11
  L 935.04 1280.53
  L 936.59 1279.88
  L 938.07 1279.17
  L 939.48 1278.39
  L 940.80 1277.56
  L 942.06 1276.66
  L 943.22 1275.72
  L 944.31 1274.72
  L 945.29 1273.67
  L 946.20 1272.57
  L 946.99 1271.44
  L 947.70 1270.26
  L 948.30 1269.05
  L 948.81 1267.79
  L 949.21 1266.52
  L 949.52 1265.21
  L 949.73 1263.87
  L 949.84 1262.49
  L 949.85 1261.11
  L 949.76 1259.68
  L 949.58 1258.25
  L 949.30 1256.77
  L 948.98 1255.58
  L 948.59 1254.46
  L 948.10 1253.38
  L 947.53 1252.38
  L 946.93 1251.51
  L 946.27 1250.70
  L 945.53 1249.92
  L 944.73 1249.20
  L 943.86 1248.52
  L 942.89 1247.86
  L 941.87 1247.26
  L 940.75 1246.68
  L 939.60 1246.16
  L 938.36 1245.67
  L 935.57 1244.76
  L 932.41 1243.94
  L 928.05 1243.01
  L 924.45 1242.25
  L 920.85 1241.48
  L 916.74 1240.70
  L 912.56 1240.03
  L 908.28 1239.46
  L 903.88 1238.99
  L 899.32 1238.61
  L 894.54 1238.32
  L 889.45 1238.11
  L 884.01 1237.98
  L 879.76 1237.83
  L 874.13 1237.49
  L 867.12 1236.97
  L 858.72 1236.27
  L 856.07 1235.99
  L 853.21 1235.60
  L 850.12 1235.10
  L 846.82 1234.49
  L 844.28 1234.05
  L 841.45 1233.65
  L 838.30 1233.30
  L 833.95 1232.89
  L 827.12 1232.21
  L 824.53 1231.87
  L 822.21 1231.50
  L 809.63 1229.32
  L 807.71 1228.95
  L 805.94 1228.53
  L 804.30 1228.04
  L 802.80 1227.50
  L 799.25 1226.22
  L 796.17 1225.12
  L 793.97 1224.17
  L 791.59 1222.98
  L 789.28 1221.74
  L 787.09 1220.46
  L 785.00 1219.14
  L 783.04 1217.79
  L 781.19 1216.41
  L 779.48 1215.02
  L 777.88 1213.59
  L 776.42 1212.14
  L 775.09 1210.68
  L 773.88 1209.18
  L 772.80 1207.67
  L 771.84 1206.13
  L 771.03 1204.60
  L 770.33 1203.01
  L 769.78 1201.43
  L 769.18 1199.30
  L 768.67 1197.16
  L 768.25 1194.97
  L 767.93 1192.76
  L 767.70 1190.55
  L 767.56 1188.32
  L 767.52 1186.06
  L 767.58 1183.81
  L 767.73 1181.53
  L 767.97 1179.26
  L 768.31 1176.99
  L 768.74 1174.74
  L 769.27 1172.49
  L 769.88 1170.26
  L 770.59 1168.05
  L 771.38 1165.87
  L 772.15 1164.02
  L 773.01 1162.24
  L 773.97 1160.51
  L 775.02 1158.86
  L 776.37 1157.00
  L 777.84 1155.24
  L 779.45 1153.54
  L 781.19 1151.94
  L 783.09 1150.39
  L 785.12 1148.92
  L 787.29 1147.52
  L 789.65 1146.16
  L 792.86 1144.48
  L 796.10 1142.93
  L 799.36 1141.51
  L 802.65 1140.21
  L 805.97 1139.05
  L 809.32 1138.01
  L 812.69 1137.11
  L 816.09 1136.33
  L 816.09 1136.33
  L 816.09 1136.33
  L 818.48 1135.86
  L 820.88 1135.46
  L 830.28 1133.99
  L 835.09 1133.19
  L 839.84 1132.34
  L 843.80 1131.69
  L 846.97 1131.25
  L 849.34 1131.00
  L 854.40 1130.62
  L 861.45 1130.11
  L 866.16 1129.85
  L 870.35 1129.73
  L 874.25 1129.76
  L 875.42 1129.80
  L 877.46 1129.95
  L 879.79 1130.26
  L 882.48 1130.72
  L 886.13 1131.45
  L 888.75 1131.98
  L 890.89 1132.25
  L 894.80 1132.58
  L 905.32 1133.41
  L 913.92 1134.20
  L 920.58 1134.97
  L 923.19 1135.34
  L 925.31 1135.70
  L 933.32 1137.29
  L 940.28 1138.78
  L 946.17 1140.19
  L 951.01 1141.51
  L 960.53 1144.43
  L 973.22 1148.50
  L 973.79 1148.73
  L 974.27 1149.01
  L 974.65 1149.34
  L 974.94 1149.73
  L 974.94 1149.73
  L 975.14 1150.19
  L 975.25 1150.71
  L 975.25 1151.28
  L 975.16 1151.91
  L 974.77 1153.35
  L 974.12 1155.23
  L 973.22 1157.56
  L 972.06 1160.34
  L 970.38 1164.10
  L 968.51 1168.00
  L 966.46 1172.05
  L 964.23 1176.25
  L 963.68 1177.19
  L 963.05 1178.08
  L 961.98 1179.34
  L 961.47 1179.75
  L 960.87 1180.02
  L 960.21 1180.13
  L 959.55 1180.07
  L 957.86 1179.57
  L 956.03 1178.82
  L 953.96 1177.77
  L 951.05 1176.14
  L 947.66 1174.23
  L 945.66 1173.23
  L 943.52 1172.29
  L 941.26 1171.43
  L 938.87 1170.63
  L 934.64 1169.37
  L 930.42 1168.23
  L 926.22 1167.20
  L 922.04 1166.29
  L 917.88 1165.50
  L 913.73 1164.82
  L 909.60 1164.25
  L 905.49 1163.80
  L 898.43 1163.07
  L 892.92 1162.49
  L 888.99 1162.14
  L 885.43 1161.93
  L 882.15 1161.85
  L 876.52 1161.82
  L 864.94 1161.77
  L 857.16 1161.86
  L 850.26 1162.12
  L 843.81 1162.56
  L 837.60 1163.20
  L 831.12 1164.07
  L 829.35 1164.36
  L 827.83 1164.68
  L 826.57 1165.00
  L 825.55 1165.35
  L 821.58 1166.79
  L 818.61 1167.85
  L 816.49 1168.73
  L 814.64 1169.66
  L 812.97 1170.70
  L 811.16 1172.06
  L 809.52 1173.53
  L 808.12 1175.06
  L 806.95 1176.63
  L 806.05 1178.22
  L 805.70 1179.02
  L 805.40 1179.83
  L 805.18 1180.63
  L 805.02 1181.44
  L 804.92 1182.24
  L 804.89 1183.05
  L 805.01 1184.57
  L 805.35 1186.06
  L 805.93 1187.69
  L 806.60 1189.15
  L 807.38 1190.48
  L 808.29 1191.70
  L 809.20 1192.69
  L 810.24 1193.62
  L 811.38 1194.47
  L 812.67 1195.27
  L 814.09 1196.03
  L 815.71 1196.78
  L 817.62 1197.57
  L 820.31 1198.60
  L 822.19 1199.21
  L 824.41 1199.76
  L 826.98 1200.24
  L 829.88 1200.66
  L 840.23 1201.86
  L 851.12 1202.95
  L 862.89 1203.97
  L 878.98 1205.21
  L 899.72 1206.83
  L 905.21 1207.35
  L 911.02 1208.03
  L 917.32 1208.87
  L 925.91 1210.13
  L 939.63 1212.09
  L 941.46 1212.41
  L 943.93 1212.99
  L 947.07 1213.80
  L 950.85 1214.87
  L 953.30 1215.63
  L 955.70 1216.49
  L 958.05 1217.44
  L 960.36 1218.49
  L 962.63 1219.63
  L 964.84 1220.87
  L 966.99 1222.19
  L 969.07 1223.60
  L 971.08 1225.08
  L 973.03 1226.65
  L 974.89 1228.29
  L 976.68 1230.01
  L 978.39 1231.80
  L 980.01 1233.66
  L 981.52 1235.57
  L 982.95 1237.54
  L 983.69 1238.68
  L 984.38 1239.85
  L 985.02 1241.08
  L 985.62 1242.34
  L 986.17 1243.68
  L 986.67 1245.05
  L 987.55 1247.95
  L 988.24 1251.08
  L 988.75 1254.41
  L 989.09 1257.97
  L 989.26 1261.83
  L 989.25 1264.19
  L 989.14 1266.52
  L 988.91 1268.77
  L 988.57 1270.99
  L 988.13 1273.15
  L 987.57 1275.27
  L 986.91 1277.32
  L 986.13 1279.34
  L 984.85 1282.10
  L 983.34 1284.79
  L 981.61 1287.37
  L 979.65 1289.89
  L 977.16 1292.68
  L 974.53 1295.27
  L 971.77 1297.68
  L 968.87 1299.90
  L 968.87 1299.90
  L 968.87 1299.90
  L 968.87 1299.90
  L 967.12 1301.11
  L 965.31 1302.25
  L 963.46 1303.33
  L 961.57 1304.34
  L 959.62 1305.29
  L 957.64 1306.18
  L 955.60 1307.00
  L 953.52 1307.75
  L 944.68 1310.50
  L 942.31 1311.16
  L 939.61 1311.78
  L 936.56 1312.36
  L 932.45 1313.05
  L 927.74 1313.86
  L 924.73 1314.52
  L 922.38 1315.05
  L 920.01 1315.42
  L 917.62 1315.65
  L 915.21 1315.72
  L 912.38 1315.77
  L 909.09 1315.94
  L 905.29 1316.23
  L 899.95 1316.72
  L 891.35 1317.47
  L 888.22 1317.65
  L 885.52 1317.73
  L 878.62 1317.82
  L 872.29 1317.90
  L 867.94 1317.90
  L 864.00 1317.82
  L 860.30 1317.64
  L 857.03 1317.40
  L 850.35 1316.87
  L 843.53 1316.40
  L 839.31 1316.03
  L 835.32 1315.46
  L 830.07 1314.48
  L 823.58 1313.26
  L 818.78 1312.34
  L 813.80 1311.22
  L 809.32 1310.10
  L 804.89 1308.90
  L 800.50 1307.62
  L 796.15 1306.28
  L 791.85 1304.85
  L 787.59 1303.35
  L 783.37 1301.77
  L 779.20 1300.12
  L 775.30 1298.61
  L 772.28 1297.62
  L 770.40 1297.04
  L 768.63 1296.41
  L 766.95 1295.72
  L 765.38 1294.97
  L 765.07 1294.78
  L 764.79 1294.54
  L 764.56 1294.25
  L 764.39 1293.94
  L 764.27 1293.59
  L 764.20 1293.23
  L 764.21 1292.87
  L 764.27 1292.51
  L 764.92 1290.25
  L 765.70 1287.93
  L 766.59 1285.54
  L 767.60 1283.08
  L 769.41 1278.98
  L 771.30 1274.94
  L 773.25 1270.96
  L 775.28 1267.04
  L 776.06 1265.76
  L 776.86 1264.83
  L 777.25 1264.50
  L 777.65 1264.25
  L 778.06 1264.09
  L 778.46 1264.02
  L 778.97 1264.04
  L 779.46 1264.18
  Z"
/>
<path fill="#eeeeee" d="
  M 1463.20 1313.48
  L 1463.05 1313.41
  L 1462.75 1313.14
  L 1462.59 1312.78
  L 1462.61 1312.38
  L 1462.79 1312.02
  L 1463.49 1311.10
  L 1464.20 1310.03
  L 1465.90 1307.00
  L 1467.25 1304.57
  L 1472.31 1296.18
  L 1476.91 1288.81
  L 1482.61 1280.01
  L 1489.48 1269.76
  L 1491.96 1266.04
  L 1494.63 1261.90
  L 1501.56 1250.81
  L 1508.78 1239.25
  L 1513.57 1231.70
  L 1518.36 1224.02
  L 1523.17 1216.20
  L 1527.98 1208.24
  L 1528.74 1207.10
  L 1529.96 1205.52
  L 1531.46 1203.53
  L 1532.39 1202.04
  L 1533.12 1200.76
  L 1533.98 1199.38
  L 1536.47 1195.78
  L 1538.06 1193.50
  L 1539.11 1191.90
  L 1546.59 1179.74
  L 1553.03 1169.02
  L 1554.27 1167.02
  L 1555.93 1164.47
  L 1561.18 1156.77
  L 1565.35 1150.69
  L 1568.18 1146.45
  L 1570.04 1143.66
  L 1571.60 1141.41
  L 1572.86 1139.72
  L 1573.82 1138.57
  L 1574.30 1138.14
  L 1574.83 1137.79
  L 1575.45 1137.49
  L 1576.16 1137.25
  L 1576.94 1137.07
  L 1577.82 1136.93
  L 1580.21 1136.75
  L 1580.42 1136.74
  L 1587.82 1136.46
  L 1595.17 1136.37
  L 1602.48 1136.46
  L 1609.75 1136.74
  L 1611.04 1136.85
  L 1612.30 1137.05
  L 1613.53 1137.34
  L 1614.73 1137.72
  L 1614.73 1137.72
  L 1615.95 1138.21
  L 1617.13 1138.79
  L 1617.87 1139.30
  L 1618.48 1139.95
  L 1622.95 1145.75
  L 1624.26 1147.34
  L 1625.43 1148.88
  L 1626.46 1150.37
  L 1627.36 1151.81
  L 1629.83 1155.76
  L 1634.48 1162.91
  L 1637.32 1167.18
  L 1639.33 1170.07
  L 1641.45 1173.22
  L 1643.92 1177.29
  L 1644.80 1178.62
  L 1646.21 1180.49
  L 1647.83 1182.66
  L 1654.57 1193.06
  L 1661.72 1204.24
  L 1669.25 1216.18
  L 1677.19 1228.90
  L 1677.81 1229.78
  L 1678.84 1231.05
  L 1679.92 1232.40
  L 1680.50 1233.28
  L 1681.60 1235.27
  L 1682.84 1237.35
  L 1686.21 1242.59
  L 1688.36 1245.89
  L 1689.86 1248.31
  L 1693.05 1253.55
  L 1696.80 1259.50
  L 1701.10 1266.15
  L 1705.96 1273.51
  L 1710.98 1281.36
  L 1720.10 1295.99
  L 1722.65 1299.99
  L 1725.15 1303.89
  L 1726.87 1306.79
  L 1728.31 1309.49
  L 1729.46 1312.04
  L 1729.53 1312.39
  L 1729.45 1312.75
  L 1729.25 1313.04
  L 1728.94 1313.23
  L 1728.94 1313.23
  L 1728.91 1313.24
  L 1727.67 1313.59
  L 1726.41 1313.85
  L 1726.41 1313.85
  L 1725.22 1314.01
  L 1724.01 1314.08
  L 1714.97 1314.26
  L 1706.45 1314.34
  L 1698.46 1314.32
  L 1691.00 1314.20
  L 1689.99 1314.10
  L 1689.04 1313.86
  L 1688.03 1313.43
  L 1687.62 1313.14
  L 1687.30 1312.76
  L 1686.38 1311.41
  L 1684.87 1309.47
  L 1683.08 1307.13
  L 1681.93 1305.41
  L 1679.66 1301.80
  L 1677.08 1298.08
  L 1674.92 1294.93
  L 1674.10 1293.60
  L 1673.47 1292.44
  L 1672.71 1291.01
  L 1671.62 1289.13
  L 1670.18 1286.63
  L 1669.18 1284.63
  L 1668.86 1283.92
  L 1667.19 1280.42
  L 1666.48 1279.16
  L 1665.77 1278.07
  L 1665.04 1277.12
  L 1664.29 1276.30
  L 1663.48 1275.61
  L 1662.65 1275.07
  L 1662.39 1274.96
  L 1662.11 1274.93
  L 1661.83 1274.97
  L 1661.57 1275.09
  L 1660.67 1275.62
  L 1659.74 1276.08
  L 1658.80 1276.49
  L 1657.84 1276.83
  L 1657.84 1276.83
  L 1656.24 1277.25
  L 1654.58 1277.51
  L 1652.88 1277.60
  L 1651.12 1277.53
  L 1647.60 1277.31
  L 1640.31 1277.12
  L 1625.69 1276.78
  L 1615.10 1276.67
  L 1608.76 1276.69
  L 1602.12 1276.78
  L 1566.25 1277.13
  L 1556.55 1277.34
  L 1547.46 1277.54
  L 1540.79 1277.55
  L 1534.83 1277.36
  L 1532.10 1277.19
  L 1529.48 1276.97
  L 1529.08 1276.97
  L 1528.68 1277.06
  L 1528.32 1277.23
  L 1528.00 1277.47
  L 1527.17 1278.33
  L 1526.39 1279.32
  L 1525.62 1280.46
  L 1524.64 1282.08
  L 1523.18 1284.43
  L 1522.56 1285.30
  L 1521.91 1286.08
  L 1521.20 1287.02
  L 1515.85 1295.49
  L 1511.31 1302.47
  L 1507.58 1307.95
  L 1504.67 1311.94
  L 1504.27 1312.36
  L 1503.70 1312.77
  L 1503.02 1313.13
  L 1502.21 1313.45
  L 1501.28 1313.74
  L 1500.28 1313.96
  L 1499.24 1314.12
  L 1498.24 1314.20
  L 1492.04 1314.33
  L 1484.66 1314.31
  L 1476.11 1314.16
  L 1466.38 1313.87
  L 1464.46 1313.73
  L 1463.75 1313.62
  L 1463.20 1313.48
  Z
  M 1644.02 1243.07
  L 1642.53 1240.47
  L 1641.01 1237.98
  L 1639.48 1235.60
  L 1637.92 1233.32
  L 1633.78 1227.29
  L 1628.44 1219.20
  L 1623.57 1211.79
  L 1619.62 1205.95
  L 1613.99 1197.56
  L 1608.48 1188.96
  L 1603.09 1180.16
  L 1597.82 1171.15
  L 1597.30 1170.35
  L 1596.73 1169.71
  L 1596.12 1169.21
  L 1595.45 1168.86
  L 1594.97 1168.78
  L 1594.51 1168.93
  L 1593.96 1169.36
  L 1593.32 1170.07
  L 1592.61 1171.06
  L 1591.81 1172.33
  L 1588.68 1177.60
  L 1584.12 1185.25
  L 1580.93 1190.50
  L 1577.98 1195.20
  L 1575.12 1199.59
  L 1573.35 1202.22
  L 1566.50 1212.36
  L 1560.45 1221.41
  L 1555.20 1229.37
  L 1550.76 1236.24
  L 1549.09 1238.94
  L 1547.62 1241.51
  L 1546.35 1243.94
  L 1545.28 1246.24
  L 1545.15 1246.83
  L 1545.24 1247.42
  L 1545.54 1247.94
  L 1546.02 1248.31
  L 1547.00 1248.65
  L 1548.29 1248.84
  L 1551.40 1249.01
  L 1555.00 1249.07
  L 1559.10 1249.03
  L 1564.80 1248.88
  L 1572.49 1248.70
  L 1575.25 1248.71
  L 1577.60 1248.78
  L 1581.81 1248.89
  L 1588.39 1248.96
  L 1608.70 1248.93
  L 1613.67 1248.81
  L 1620.24 1248.46
  L 1625.87 1248.16
  L 1629.85 1248.05
  L 1632.56 1247.91
  L 1635.80 1247.55
  L 1639.07 1247.02
  L 1641.60 1246.44
  L 1642.53 1246.11
  L 1643.26 1245.70
  L 1643.79 1245.21
  L 1644.12 1244.65
  L 1644.12 1244.65
  L 1644.12 1244.65
  L 1644.21 1244.28
  L 1644.24 1243.88
  L 1644.18 1243.46
  L 1644.02 1243.07
  Z"
/>
<path fill="#eeeeee" d="
  M 160.98 1277.82
  L 161.20 1277.56
  L 161.34 1277.31
  L 162.17 1275.08
  L 163.12 1272.78
  L 164.19 1270.42
  L 165.37 1267.99
  L 166.68 1265.49
  L 168.10 1262.92
  L 169.63 1260.29
  L 171.29 1257.59
  L 175.59 1250.81
  L 177.98 1247.24
  L 180.05 1244.29
  L 182.45 1240.63
  L 185.20 1236.25
  L 188.99 1230.04
  L 194.51 1221.09
  L 208.86 1198.44
  L 216.77 1185.92
  L 221.71 1178.27
  L 229.58 1166.08
  L 233.37 1160.03
  L 237.07 1154.02
  L 240.56 1148.01
  L 242.63 1144.38
  L 244.17 1141.83
  L 245.56 1139.68
  L 246.88 1137.84
  L 247.17 1137.55
  L 247.52 1137.35
  L 248.16 1137.14
  L 248.91 1136.98
  L 249.78 1136.88
  L 250.76 1136.82
  L 262.80 1136.66
  L 281.76 1136.60
  L 283.51 1136.66
  L 285.29 1136.85
  L 287.11 1137.17
  L 288.97 1137.61
  L 289.30 1137.78
  L 289.54 1138.07
  L 289.64 1138.43
  L 289.58 1138.80
  L 289.55 1138.88
  L 288.17 1141.67
  L 286.80 1144.22
  L 285.44 1146.54
  L 284.10 1148.62
  L 280.85 1153.47
  L 278.96 1156.40
  L 272.19 1167.32
  L 265.22 1178.23
  L 258.06 1189.13
  L 250.69 1200.02
  L 248.20 1203.80
  L 245.04 1208.94
  L 242.34 1213.35
  L 240.26 1216.58
  L 238.41 1219.48
  L 236.14 1223.26
  L 234.27 1226.36
  L 232.09 1229.80
  L 226.06 1238.87
  L 221.33 1245.95
  L 218.09 1251.01
  L 208.70 1266.09
  L 199.95 1279.96
  L 199.29 1280.93
  L 198.36 1282.16
  L 197.14 1283.82
  L 192.23 1291.57
  L 187.64 1298.97
  L 183.39 1306.02
  L 179.47 1312.72
  L 179.46 1312.73
  L 179.46 1312.73
  L 179.25 1313.03
  L 178.97 1313.28
  L 178.63 1313.50
  L 178.23 1313.69
  L 177.24 1313.95
  L 176.01 1314.06
  L 168.36 1314.25
  L 160.31 1314.37
  L 151.86 1314.40
  L 143.00 1314.36
  L 141.85 1314.29
  L 140.81 1314.12
  L 139.87 1313.82
  L 139.04 1313.42
  L 138.67 1313.14
  L 138.36 1312.80
  L 134.62 1307.46
  L 132.61 1304.38
  L 127.80 1296.30
  L 122.89 1288.28
  L 117.89 1280.32
  L 112.78 1272.44
  L 112.78 1272.44
  L 112.78 1272.44
  L 108.54 1266.03
  L 104.22 1259.67
  L 101.97 1256.28
  L 99.42 1252.26
  L 96.56 1247.58
  L 93.41 1242.27
  L 91.09 1238.41
  L 88.48 1234.23
  L 85.57 1229.74
  L 82.37 1224.94
  L 74.70 1213.47
  L 69.63 1205.68
  L 67.56 1202.52
  L 65.40 1199.42
  L 63.32 1196.44
  L 61.15 1193.18
  L 54.01 1182.21
  L 47.05 1171.66
  L 40.29 1161.52
  L 33.72 1151.81
  L 31.56 1148.45
  L 29.62 1145.03
  L 27.91 1141.54
  L 26.41 1137.99
  L 26.38 1137.90
  L 26.38 1137.63
  L 26.49 1137.39
  L 26.69 1137.22
  L 26.95 1137.15
  L 36.54 1136.78
  L 46.18 1136.59
  L 55.86 1136.59
  L 65.59 1136.77
  L 66.95 1136.85
  L 68.03 1137.01
  L 68.93 1137.26
  L 69.71 1137.63
  L 70.40 1138.14
  L 71.04 1138.80
  L 71.69 1139.67
  L 72.42 1140.83
  L 78.03 1150.29
  L 83.00 1158.44
  L 87.75 1165.96
  L 92.39 1173.04
  L 98.27 1181.78
  L 105.04 1191.86
  L 109.74 1199.01
  L 113.87 1205.50
  L 117.58 1211.59
  L 120.49 1216.35
  L 125.08 1223.66
  L 130.16 1231.52
  L 137.46 1242.43
  L 144.82 1253.45
  L 147.35 1257.37
  L 149.46 1260.73
  L 152.32 1265.53
  L 154.78 1269.69
  L 156.64 1272.71
  L 158.41 1275.39
  L 160.08 1277.74
  L 160.26 1277.90
  L 160.50 1277.98
  L 160.74 1277.96
  L 160.95 1277.84
  L 160.98 1277.82
  Z"
/>
<path fill="#eeeeee" d="
  M 421.15 1137.35
  L 424.84 1137.10
  L 428.63 1136.92
  L 432.51 1136.81
  L 436.50 1136.78
  L 515.30 1136.82
  L 601.50 1136.76
  L 615.72 1136.85
  L 615.97 1136.89
  L 616.19 1137.01
  L 616.37 1137.18
  L 616.48 1137.40
  L 616.76 1138.40
  L 616.99 1139.76
  L 617.07 1141.18
  L 617.00 1142.70
  L 616.77 1144.75
  L 616.54 1146.84
  L 616.48 1148.38
  L 616.60 1155.02
  L 616.72 1157.59
  L 616.87 1159.66
  L 616.88 1160.57
  L 616.74 1161.47
  L 615.87 1165.00
  L 615.76 1165.27
  L 615.56 1165.49
  L 615.30 1165.63
  L 615.01 1165.68
  L 460.54 1165.68
  L 460.32 1165.72
  L 460.13 1165.85
  L 460.00 1166.04
  L 459.95 1166.26
  L 459.84 1173.33
  L 459.80 1181.82
  L 459.86 1191.70
  L 459.99 1203.00
  L 460.11 1205.38
  L 460.37 1207.86
  L 460.38 1207.94
  L 460.54 1208.29
  L 460.83 1208.54
  L 461.20 1208.66
  L 461.58 1208.62
  L 462.19 1208.42
  L 463.79 1207.94
  L 465.08 1207.73
  L 466.09 1207.69
  L 467.16 1207.78
  L 470.04 1208.13
  L 472.94 1208.41
  L 475.86 1208.63
  L 478.79 1208.78
  L 481.76 1208.87
  L 484.74 1208.90
  L 487.74 1208.87
  L 490.76 1208.77
  L 495.51 1208.62
  L 500.82 1208.57
  L 506.78 1208.60
  L 514.88 1208.72
  L 523.13 1208.84
  L 528.79 1208.85
  L 542.40 1208.79
  L 557.79 1208.85
  L 574.95 1209.02
  L 593.89 1209.31
  L 594.02 1209.35
  L 594.11 1209.53
  L 594.08 1219.59
  L 594.18 1226.75
  L 594.31 1228.62
  L 594.60 1230.38
  L 595.04 1232.04
  L 595.64 1233.59
  L 595.66 1233.66
  L 595.67 1233.85
  L 595.59 1234.01
  L 595.45 1234.13
  L 595.27 1234.18
  L 589.12 1234.41
  L 582.69 1234.65
  L 577.75 1234.97
  L 568.51 1235.65
  L 565.66 1235.79
  L 564.00 1235.78
  L 560.29 1235.55
  L 556.60 1235.39
  L 552.94 1235.29
  L 549.30 1235.26
  L 545.68 1235.31
  L 542.08 1235.42
  L 538.50 1235.59
  L 534.95 1235.84
  L 532.17 1236.17
  L 528.20 1236.85
  L 523.42 1237.65
  L 521.72 1237.84
  L 520.24 1237.92
  L 505.78 1238.13
  L 491.67 1238.17
  L 477.91 1238.01
  L 464.50 1237.68
  L 464.15 1237.61
  L 463.85 1237.41
  L 462.15 1235.70
  L 461.91 1235.52
  L 461.46 1235.40
  L 461.00 1235.50
  L 460.64 1235.79
  L 460.44 1236.22
  L 460.01 1238.84
  L 459.79 1241.29
  L 459.74 1243.76
  L 459.90 1261.23
  L 459.85 1278.75
  L 459.89 1281.75
  L 460.06 1284.21
  L 460.19 1284.62
  L 460.45 1284.97
  L 460.82 1285.19
  L 461.25 1285.27
  L 621.81 1285.27
  L 622.27 1285.36
  L 622.67 1285.62
  L 622.93 1286.02
  L 623.02 1286.48
  L 623.02 1313.89
  L 622.94 1314.09
  L 622.75 1314.17
  L 622.75 1314.17
  L 421.33 1314.17
  L 420.94 1314.09
  L 420.60 1313.87
  L 420.37 1313.54
  L 420.28 1313.15
  L 420.07 1302.21
  L 420.02 1292.26
  L 420.12 1224.79
  L 420.04 1146.75
  L 420.18 1143.63
  L 420.61 1137.89
  L 420.69 1137.63
  L 420.89 1137.44
  L 421.15 1137.35
  Z"
/>
</svg>
